<?xml version="1.0" encoding="utf-8"?>
<!-- Generator: Adobe Illustrator 16.0.0, SVG Export Plug-In . SVG Version: 6.00 Build 0)  -->
<!DOCTYPE svg PUBLIC "-//W3C//DTD SVG 1.1//EN" "http://www.w3.org/Graphics/SVG/1.1/DTD/svg11.dtd">
<svg version="1.1" id="Layer_1" xmlns="http://www.w3.org/2000/svg" xmlns:xlink="http://www.w3.org/1999/xlink" x="0px" y="0px"
	 width="3000px" height="3000px" viewBox="0 0 3000 3000" enable-background="new 0 0 3000 3000" xml:space="preserve">
<g>
	<g>
		<g>
			<g>
				<path fill="#939598" d="M1426.158,1649.102v-106.876h26.736c17.764,0,31.236,4.417,40.479,13.263
					c9.251,8.833,13.854,21.725,13.854,38.682c0,16.275-4.961,29.521-14.865,39.687c-9.918,10.157-23.594,15.245-41.016,15.245
					H1426.158z M1433.545,1549.009v93.368h16.738c15.856,0,28.047-4.107,36.526-12.325c8.491-8.209,12.761-20.079,12.761-35.599
					c0-30.301-15.938-45.444-47.765-45.444H1433.545z"/>
				<path fill="#939598" d="M1529.158,1611.238c0,10.479,2.43,18.688,7.26,24.588c4.834,5.885,11.473,8.863,19.939,8.863
					c8.543,0,16.891-3.126,25.023-9.453v7.293c-7.896,5.619-16.696,8.424-26.432,8.424c-9.854,0-17.793-3.539-23.843-10.588
					c-6.07-7.057-9.103-16.996-9.103-29.861c0-11.153,3.163-20.526,9.499-28.162c6.327-7.609,14.554-11.436,24.69-11.436
					c9.516,0,16.785,3.328,21.855,9.998c5.057,6.652,7.592,15.726,7.592,27.254v3.08H1529.158z M1578.482,1604.969
					c-0.282-8.791-2.426-15.624-6.336-20.484c-3.936-4.88-9.33-7.33-16.232-7.33c-7.175,0-13.114,2.404-17.779,7.209
					c-4.704,4.796-7.602,11.676-8.682,20.605H1578.482z"/>
				<path fill="#939598" d="M1629.605,1649.102h-6.261l-29.524-76.344h7.711l22.699,60.773c1.098,2.907,1.873,5.572,2.312,7.969
					h0.286c0.667-3.164,1.376-5.703,2.169-7.678l23.491-61.064h7.441L1629.605,1649.102z"/>
				<path fill="#939598" d="M1675.369,1611.238c0,10.479,2.4,18.688,7.27,24.588c4.825,5.885,11.473,8.863,19.914,8.863
					c8.567,0,16.902-3.126,25.074-9.453v7.293c-7.931,5.619-16.747,8.424-26.479,8.424c-9.838,0-17.772-3.539-23.852-10.588
					c-6.057-7.057-9.072-16.996-9.072-29.861c0-11.153,3.143-20.526,9.469-28.162c6.357-7.609,14.601-11.436,24.729-11.436
					c9.5,0,16.76,3.328,21.822,9.998c5.1,6.652,7.626,15.726,7.626,27.254v3.08H1675.369z M1724.695,1604.969
					c-0.287-8.791-2.435-15.624-6.328-20.484c-3.918-4.88-9.344-7.33-16.27-7.33c-7.138,0-13.057,2.404-17.742,7.209
					c-4.704,4.796-7.619,11.676-8.699,20.605H1724.695z"/>
				<path fill="#939598" d="M1750.777,1649.102v-112.992h6.88v112.992H1750.777z"/>
				<path fill="#939598" d="M1812.728,1650.953c-11.149,0-19.94-3.674-26.433-10.984c-6.492-7.344-9.71-16.86-9.71-28.584
					c0-12.68,3.392-22.576,10.153-29.734c6.796-7.162,15.718-10.744,26.791-10.744c10.896,0,19.48,3.543,25.808,10.651
					c6.29,7.112,9.462,16.944,9.462,29.536c0,11.879-3.227,21.48-9.647,28.828
					C1832.697,1647.279,1823.889,1650.953,1812.728,1650.953z M1813.255,1577.154c-8.993,0-16.187,3.07-21.526,9.119
					c-5.332,6.058-8.006,14.486-8.006,25.26c0,9.98,2.619,18.029,7.85,24.053c5.201,6.078,12.348,9.104,21.371,9.104
					c9.183,0,16.266-2.986,21.238-8.926c4.97-5.986,7.441-14.25,7.441-24.838c0-10.875-2.463-19.219-7.402-25.023
					C1829.293,1580.072,1822.282,1577.154,1813.255,1577.154z"/>
				<path fill="#939598" d="M1874.872,1635.531h-0.286v48.642h-6.859v-111.415h6.859v15.748h0.286
					c2.759-5.628,6.652-9.936,11.761-13.023c5.092-3.053,10.682-4.576,16.785-4.576c9.702,0,17.273,3.337,22.707,10.027
					c5.434,6.694,8.154,15.776,8.154,27.225c0,12.781-3.117,23.092-9.352,30.988c-6.235,7.88-14.465,11.807-24.699,11.807
					C1888.789,1650.953,1880.36,1645.807,1874.872,1635.531z M1874.586,1607.125v9.631c0,7.635,2.4,14.203,7.221,19.707
					c4.826,5.477,11.188,8.227,19,8.227s14.14-3.35,19-10.015c4.88-6.69,7.331-15.478,7.331-26.339
					c0-9.559-2.266-17.118-6.741-22.746c-4.463-5.618-10.395-8.436-17.865-8.436c-8.892,0-15.78,2.994-20.648,8.951
					C1877.011,1592.082,1874.586,1599.102,1874.586,1607.125z"/>
				<path fill="#939598" d="M2048.917,1649.102v-45.912c0-9.576-1.519-16.316-4.497-20.197c-3.016-3.877-7.778-5.838-14.296-5.838
					c-6.015,0-11.216,2.615-15.569,7.752c-4.371,5.172-6.547,11.678-6.547,19.48v44.715h-6.881v-46.439
					c0-16.987-6.449-25.508-19.37-25.508c-6.214,0-11.397,2.615-15.503,7.791c-4.121,5.209-6.196,11.934-6.196,20.168v43.988h-6.838
					v-76.344h6.838v12.693h0.304c5.319-9.682,13.115-14.545,23.332-14.545c5.563,0,10.322,1.607,14.287,4.822
					c3.919,3.176,6.614,7.424,7.998,12.612c2.396-5.509,5.801-9.771,10.255-12.858c4.438-3.053,9.259-4.576,14.481-4.576
					c16.709,0,25.057,10.33,25.057,31.01v47.186H2048.917z"/>
				<path fill="#939598" d="M2080.268,1611.238c0,10.479,2.442,18.688,7.269,24.588c4.843,5.885,11.491,8.863,19.932,8.863
					c8.546,0,16.886-3.126,25.048-9.453v7.293c-7.904,5.619-16.713,8.424-26.461,8.424c-9.833,0-17.789-3.539-23.821-10.588
					c-6.07-7.057-9.111-16.996-9.111-29.861c0-11.153,3.181-20.526,9.479-28.162c6.356-7.609,14.591-11.436,24.728-11.436
					c9.5,0,16.777,3.328,21.813,9.998c5.091,6.652,7.636,15.726,7.636,27.254v3.08H2080.268z M2129.609,1604.969
					c-0.303-8.791-2.417-15.624-6.336-20.484c-3.927-4.88-9.344-7.33-16.24-7.33c-7.176,0-13.09,2.404-17.811,7.209
					c-4.656,4.796-7.555,11.676-8.63,20.605H2129.609z"/>
				<path fill="#939598" d="M2207.564,1649.102v-44.428c0-18.328-6.605-27.52-19.83-27.52c-7.361,0-13.385,2.732-18.105,8.086
					c-4.703,5.404-7.082,12.09-7.082,20.033v43.828h-6.834v-76.344h6.834v13.896h0.303c5.59-10.499,14.259-15.747,26.082-15.747
					c8.265,0,14.575,2.759,18.945,8.247c4.379,5.483,6.539,13.317,6.539,23.509v46.439H2207.564z"/>
				<path fill="#939598" d="M2267.559,1648.03c-3.569,1.688-6.918,2.556-10.053,2.556c-11.279,0-16.916-6.773-16.916-20.281v-51.27
					h-13.722v-6.277h13.722v-19.809c1.072-0.405,2.232-0.785,3.413-1.182c1.198-0.346,2.35-0.734,3.421-1.139v22.129h20.135v6.277
					h-20.135v50.375c0,5.265,0.856,9.074,2.51,11.453c1.671,2.332,4.48,3.522,8.458,3.522c2.822,0,5.885-0.903,9.167-2.759V1648.03z
					"/>
			</g>
		</g>
		<polygon fill="#939598" points="1291.023,1386.898 1218.548,1386.898 1316.385,1531.996 1218.548,1677.09 1291.023,1677.09 
			1387.244,1531.996 		"/>
		<polygon fill="#939598" points="1021.438,1386.898 1093.909,1386.898 996.073,1531.996 1093.909,1677.09 1021.438,1677.09 
			925.204,1531.996 		"/>
	</g>
	<g>
		<g>
			<g>
				<path fill="#686868" d="M1183.983,1553.016c0-0.628-0.435-5.664-0.308-6.521c0,0.034,0,0.034,0-0.168
					c-0.397-22.843-1.789-116.19-3.569-146.781c-0.599-18.089-1.363-36.126-2.413-54.164c-1.405-23.614-5.441-48.452-8.082-71.999
					c-2.219-20.087-5.442-40.154-8.243-60.289c-0.279-2.286-1.126-4.539-1.734-6.817c-0.257,0-0.527-3.357-0.793-3.383
					c-0.257,0.025-0.527,3.383-0.797,3.383c-0.625,2.278-1.456,4.531-1.713,6.817c-2.852,20.134-6.07,40.201-8.285,60.289
					c-2.645,23.547-6.657,48.385-8.002,71.999c-1.101,18.038-1.865,36.075-2.455,54.164c-1.789,30.591-3.21,123.938-3.577,146.781
					c0,0.202,0,0.202,0,0.168c0.093,0.857-0.333,5.894-0.333,6.521c-0.063,2.811-0.295,5.688,0,8.514
					c0.101,0.793,0.038,1.455-0.093,1.982h25.255h25.268c-0.165-0.527-0.202-1.189-0.126-1.982
					C1184.278,1558.703,1184.072,1555.826,1183.983,1553.016z M1180.828,1514.41l-21.986-20.101v-111.946l18.316,14.531
					C1178.014,1399.646,1180.828,1514.41,1180.828,1514.41z"/>
			</g>
		</g>
	</g>
	<path fill="#353535" d="M1200,1562.348h-41.171h-25.213h-15.966c-4.058,0-7.458,3.303-7.458,7.369c0,3.459,2.514,6.234,5.762,7.02
		h22.218c-0.084,0.231-0.186,0.324-0.266,0.611l-0.498,2.236c-0.675,3.459-1.08,8.137-1.312,12.316
		c-0.072,0.127-0.063,0.305-0.063,0.439c-0.038,0.902-0.059,1.81-0.084,2.713c-0.025,0.805-0.055,1.484-0.076,2.168
		c-0.071,2.387-0.088,4.066-0.088,4.066c0.257-0.009,0.228,0.215,0.249,0.388c0,0.122,0.008,0.358,0.093,0.325
		c0.692-0.232,0.531,0.864,1.143,0.717c0.038,0.147,0.072,0.287,0.08,0.443c0.021,0.498,0,1.008,0.03,1.506
		c0.038,0.764-0.11,1.24-1.059,1.299c-0.308,0.018-0.713,0.654-1.025,1.037c-0.856,1.047-0.241,2.169-0.473,3.224
		c-0.147,0.675,0.612,0.856,0.785,1.375c0.038,0.093,0.405,0.22,0.388,0.532c0,0.075,0.093,0.24,0.131,0.231
		c0.679-0.08,0.928,0.611,1.114,0.933c0.312,0.561,0.147,1.324,0.093,2.008c-0.025,0.379-0.747,0.287-0.607,0.822
		c-0.599-0.164-0.646,0.62-1.126,0.646c-0.266,0.017-0.232,0.211-0.241,0.38c-0.084,1.383-0.076,2.775,0.038,4.158
		c0.008,0.267-0.063,0.654,0.443,0.6c0.203-0.008,0.194,0.194,0.203,0.342c0.008,0.139-0.029,0.384,0.156,0.358
		c0.7-0.109,0.958,0.658,1.059,0.886c0.262,0.607,0.27,1.439-0.025,2.051c-0.147,0.312-0.426,0.873-1.042,0.902
		c-0.729,0.042-1.312,0.671-1.337,1.4c-0.038,1.113,0.034,2.231-0.046,3.328c-0.046,0.536,0.729,0.316,0.582,0.814
		c0.586,0.072,0.485,0.848,1.105,1.037c0.287,0.085,0.84,0.49,0.856,1.063c0.021,0.527,0.038,1.063,0.03,1.595
		c0,1.105-0.418,1.578-1.485,1.738c-0.266,0.033-0.519,0.025-0.468,0.404c0.008,0.051,0.008,0.118-0.021,0.144
		c-1.097,0.793-0.388,1.948-0.569,2.919c-0.076,0.405,0,0.844-0.013,1.283c-0.008,0.607,0.063,1.012,0.831,1.24
		c0.287,0.084,0.768,0.527,1.126,0.868c1.181,1.198,0.414,2.548,0.553,3.821c0.017,0.127,0.008,0.275-0.139,0.305
		c-0.536,0.059-0.987,0.127-1.438,0.578c-0.22,0.223-0.422,0.367-0.422,0.684c0.008,1.383,0.034,2.775,0.055,4.158
		c0.008,0.536,0.764,0.426,0.772,0.941c0.426-0.076,0.506,0.362,0.721,0.489c1.08,0.646,1.16,1.62,1.135,2.69
		c-0.017,0.186-0.017,0.363-0.017,0.537c-0.021,0.923-0.502,1.43-1.422,1.496c-0.536,0.025-1.164,0.718-1.151,1.262
		c0.008,0.629-0.03,1.262,0.025,1.882c0.046,0.519-0.312,1.159,0.443,1.506c0.093,0.034,0.08,0.376,0.08,0.569
		c0,0.312,0.186,0.367,0.409,0.545c0.477,0.379,1.033,0.632,1.51,0.986c0.388,0.287,0.848,0.734,0.721,1.393
		c-0.017,0.033,0.038,0.117,0.055,0.126c1.173,0.177,0.443,1.046,0.591,1.577c0.038,0.14,0.029,0.381-0.165,0.363
		c-0.628-0.059-0.473,0.886-1.088,0.802c0.274,0.726-0.869,0.481-0.776,1.097c0.009,0.038-0.35,0.127-0.544,0.178
		c-0.139,0.033-0.325-0.01-0.443,0.05c-0.35,0.224-0.22,0.612-0.186,0.886c0.067,0.52-0.329,1.219,0.261,1.498
		c0.375,0.189,0.384,0.367,0.396,0.662c0,0.219,0.051,0.473,0.009,0.675c-0.177,0.747,0.523,0.929,0.856,1.291
		c0.333,0.358,0.785,0.599,1.034,1.042c0.008,0.021,0.008,0.062,0.017,0.071c1.358,0.427,0.519,1.553,0.73,2.354
		c0.063,0.202-0.029,0.442-0.021,0.674c0.013,0.321-0.101,0.414-0.43,0.523c-0.38,0.131-0.637,0.536-0.97,0.802
		c-1.088,0.903-0.616,2.169-0.468,3.185c0.093,0.756,0.367,1.898,1.198,2.193c0.527,0.186,0.553,0.823,1.143,0.823
		c0.186,0,0.241,3.771,0.068,3.763c-0.583-0.059-0.464,0.902-1.109,0.7c-0.249-0.076-0.211,0.211-0.232,0.388
		c-0.101,1.291,0.046,2.564,0.038,3.855c-0.008,0.11-0.017,0.274,0.148,0.305c0.776,0.126,1.198,0.826,1.704,1.281
		c0.527,0.461,1,1.283,0.759,2.194c-0.084,0.295-0.046,0.607-0.03,0.911c0.076,0.721-0.459,1.088-0.919,1.367
		c-0.916,0.535-1.152,1.732-0.451,2.556c0.257,0.304,0.109,0.726,0.135,1.089c0.038,0.869,0.519,1.408,1.367,1.51
		c0.435,0.059,1.097,0.768,1.198,1.197c0.076,0.287-0.055,0.676,0.464,0.803c0.304,0.075,0.165,1.708-0.131,1.914
		c-0.072,0.043-0.24,0.089-0.24,0.127c0.076,0.932-0.422,1.198-1.253,1.164c-0.186-0.012-0.131,0.236-0.147,0.375
		c-0.123,1.211-0.03,2.426,0.034,3.624c0.013,0.232,0.059,0.397,0.341,0.38c0.295-0.018,0.418,0.127,0.418,0.396
		c0,0.156,0.109,0.211,0.257,0.219c0.81,0.068,1.354,0.436,1.531,1.283c0,0.017,0.017,0.051,0.038,0.059
		c1.177,0.211,0.553,1.152,0.688,1.76c0.067,0.24,0.021,0.519-0.009,0.755c-0.055,0.346-0.072,0.591-0.531,0.802
		c-0.417,0.186-0.73,0.648-1.291,0.658c-0.038,0-0.093,0.219-0.093,0.328c-0.038,0.962-0.139,1.932,0.135,2.852
		c0.202,0.637,0.447,1.329,1.35,1.32c0.506-0.021,0.625,0.516,0.987,0.756c0.793,0.535,0.747,1.484,0.646,2.379
		c-0.038,0.278,0.08,0.629-0.409,0.645c-0.203,0.014-0.118,0.241-0.156,0.367c-0.11,0.389,0.177,0.938-0.523,1.063
		c-0.186,0.025-0.105,1.733,0.088,1.78c0.456,0.093,0.363,0.413,0.371,0.691c0.017,0.536,0.084,1.072,0.038,1.586
		c0,0.025,0.017,0.047,0.017,0.076l0.186,5.079c-0.009,0.435,0.017,0.759,0.017,0.759l-0.017-0.008
		c0.578,4.952-0.713,17.531-0.713,17.531l-0.017-0.038c-0.32,3.894-1.059,8.365-2.535,13.394l-0.325,2.59
		c-0.08,2.59,0.658,4.859,2.27,6.973c0.084,0.156,0.24,0.396,0.325,1.127c1.215,7.129,3.404,9.479,10.364,10.934
		c1.236,0.278,2.48,0.371,3.716,0.418c0.224,0.008,0.443,0.071,0.667,0.071c0.055,0,0.102-0.009,0.156-0.017
		c0.055,0.008,0.101,0.017,0.156,0.017c0.224,0,0.443-0.063,0.662-0.071c1.24-0.047,2.485-0.14,3.721-0.418
		c6.96-1.455,9.146-3.805,10.364-10.934c0.084-0.73,0.241-0.971,0.325-1.127c1.612-2.113,2.35-4.383,2.27-6.973l-0.325-2.59
		c-1.477-5.028-2.214-9.5-2.535-13.394l-0.021,0.038c0,0-1.291-12.579-0.709-17.531l0.009-0.316
		c0.008-0.102,0.008-0.131,0.008-0.283l0.186-5.307c-0.046-0.514,0.021-1.05,0.038-1.586c0.008-0.278-0.084-0.599,0.367-0.691
		c0.194-0.047,0.279-1.755,0.093-1.78c-0.701-0.126-0.414-0.675-0.527-1.063c-0.034-0.126,0.05-0.354-0.156-0.367
		c-0.485-0.016-0.367-0.366-0.405-0.645c-0.102-0.895-0.148-1.844,0.645-2.379c0.363-0.24,0.481-0.776,0.987-0.756
		c0.903,0.009,1.143-0.684,1.346-1.32c0.278-0.92,0.177-1.89,0.139-2.852c0-0.109-0.055-0.328-0.093-0.328
		c-0.561-0.01-0.877-0.473-1.291-0.658c-0.459-0.211-0.481-0.456-0.531-0.802c-0.03-0.236-0.076-0.515-0.013-0.755
		c0.139-0.607-0.489-1.549,0.692-1.76c0.021-0.008,0.038-0.042,0.038-0.059c0.177-0.848,0.717-1.215,1.531-1.283
		c0.148-0.008,0.257-0.062,0.257-0.219c0-0.27,0.118-0.414,0.414-0.396c0.287,0.018,0.333-0.147,0.342-0.38
		c0.067-1.198,0.156-2.413,0.038-3.624c-0.017-0.139,0.038-0.387-0.148-0.375c-0.831,0.034-1.329-0.232-1.253-1.164
		c0-0.038-0.168-0.084-0.24-0.127c-0.295-0.206-0.435-1.839-0.131-1.914c0.519-0.127,0.388-0.516,0.464-0.803
		c0.102-0.43,0.764-1.139,1.198-1.197c0.848-0.102,1.329-0.641,1.367-1.51c0.025-0.363-0.122-0.785,0.135-1.089
		c0.7-0.823,0.464-2.021-0.452-2.556c-0.46-0.279-0.996-0.646-0.924-1.367c0.021-0.304,0.059-0.616-0.025-0.911
		c-0.24-0.911,0.228-1.733,0.755-2.194c0.51-0.455,0.932-1.155,1.708-1.281c0.165-0.03,0.156-0.194,0.147-0.305
		c-0.013-1.291,0.139-2.564,0.038-3.855c-0.021-0.177,0.017-0.464-0.232-0.388c-0.646,0.202-0.527-0.759-1.11-0.7
		c-0.173,0.008-0.118-3.763,0.068-3.763c0.59,0,0.616-0.638,1.143-0.823c0.831-0.295,1.105-1.438,1.198-2.193
		c0.148-1.016,0.62-2.281-0.468-3.185c-0.333-0.266-0.591-0.671-0.971-0.802c-0.333-0.109-0.443-0.202-0.434-0.523
		c0.013-0.231-0.08-0.472-0.017-0.674c0.211-0.802-0.628-1.928,0.73-2.354c0.008-0.009,0.008-0.05,0.017-0.071
		c0.249-0.443,0.7-0.684,1.034-1.042c0.333-0.362,1.033-0.544,0.856-1.291c-0.046-0.202,0.008-0.456,0.008-0.675
		c0.008-0.295,0.021-0.473,0.396-0.662c0.59-0.279,0.194-0.979,0.262-1.498c0.034-0.273,0.165-0.662-0.186-0.886
		c-0.118-0.06-0.304-0.017-0.443-0.05c-0.194-0.051-0.552-0.14-0.544-0.178c0.093-0.615-1.05-0.371-0.776-1.097
		c-0.616,0.084-0.459-0.86-1.088-0.802c-0.194,0.018-0.202-0.224-0.165-0.363c0.148-0.531-0.582-1.4,0.591-1.577
		c0.017-0.009,0.072-0.093,0.055-0.126c-0.131-0.658,0.333-1.105,0.717-1.393c0.481-0.354,1.033-0.607,1.514-0.986
		c0.224-0.178,0.405-0.232,0.405-0.545c0-0.193-0.009-0.535,0.084-0.569c0.755-0.347,0.396-0.987,0.443-1.506
		c0.055-0.62,0.017-1.253,0.025-1.882c0.009-0.544-0.616-1.236-1.151-1.262c-0.924-0.066-1.4-0.573-1.421-1.496
		c0-0.174,0-0.352-0.017-0.537c-0.025-1.07,0.055-2.045,1.135-2.69c0.211-0.127,0.295-0.565,0.721-0.489
		c0.009-0.516,0.764-0.405,0.772-0.941c0.021-1.383,0.046-2.775,0.055-4.158c0-0.316-0.203-0.461-0.422-0.684
		c-0.456-0.451-0.903-0.52-1.438-0.578c-0.148-0.029-0.156-0.178-0.139-0.305c0.139-1.273-0.629-2.623,0.552-3.821
		c0.359-0.341,0.839-0.784,1.126-0.868c0.764-0.229,0.839-0.633,0.827-1.24c-0.008-0.439,0.067-0.878-0.008-1.283
		c-0.186-0.971,0.527-2.126-0.569-2.919c-0.03-0.025-0.03-0.093-0.021-0.144c0.046-0.379-0.202-0.371-0.468-0.404
		c-1.072-0.16-1.485-0.633-1.485-1.738c-0.009-0.531,0.008-1.067,0.029-1.595c0.017-0.573,0.569-0.979,0.856-1.063
		c0.616-0.189,0.515-0.965,1.105-1.037c-0.147-0.498,0.628-0.278,0.582-0.814c-0.084-1.097-0.008-2.215-0.046-3.328
		c-0.025-0.729-0.607-1.358-1.337-1.4c-0.62-0.029-0.895-0.591-1.042-0.902c-0.295-0.611-0.287-1.443-0.03-2.051
		c0.105-0.228,0.359-0.995,1.063-0.886c0.182,0.025,0.148-0.22,0.156-0.358c0.008-0.147,0-0.35,0.203-0.342
		c0.506,0.055,0.435-0.333,0.443-0.6c0.11-1.383,0.122-2.775,0.038-4.158c-0.009-0.169,0.025-0.363-0.241-0.38
		c-0.481-0.025-0.527-0.81-1.126-0.646c0.139-0.535-0.583-0.443-0.607-0.822c-0.055-0.684-0.224-1.447,0.093-2.008
		c0.186-0.321,0.43-1.013,1.113-0.933c0.038,0.009,0.131-0.156,0.131-0.231c-0.021-0.312,0.35-0.439,0.388-0.532
		c0.173-0.519,0.932-0.7,0.78-1.375c-0.228-1.055,0.388-2.177-0.468-3.224c-0.312-0.383-0.721-1.02-1.025-1.037
		c-0.949-0.059-1.097-0.535-1.059-1.299c0.029-0.498,0.008-1.008,0.029-1.506c0.008-0.156,0.042-0.296,0.08-0.443
		c0.612,0.147,0.452-0.949,1.143-0.717c0.084,0.033,0.093-0.203,0.093-0.325c0.017-0.173-0.008-0.396,0.249-0.388
		c0,0-0.017-1.68-0.093-4.066c-0.017-0.684-0.046-1.363-0.072-2.168c-0.029-0.903-0.046-1.811-0.084-2.713
		c0-0.135,0.009-0.312-0.063-0.439c-0.232-4.18-0.637-8.857-1.312-12.316l-0.498-2.236c-0.084-0.287-0.186-0.38-0.266-0.611h21.488
		c3.294-0.785,5.746-3.561,5.746-7.02C1207.462,1565.65,1204.159,1562.348,1200,1562.348z"/>
	<g>
		<linearGradient id="SVGID_1_" gradientUnits="userSpaceOnUse" x1="1146.1938" y1="1567.3887" x2="1146.1938" y2="1333.3677">
			<stop  offset="0" style="stop-color:#353535"/>
			<stop  offset="1" style="stop-color:#595959"/>
		</linearGradient>
		<path fill="url(#SVGID_1_)" d="M1158.829,1202.894c-0.283,0-0.477,3.413-0.755,3.413c-0.662,2.278-1.514,4.556-1.704,6.825
			c-2.923,20.176-6.133,40.365-8.31,60.445c-2.636,23.686-6.707,48.616-8.027,72.302c-1.131,18.084-1.89,36.19-2.451,54.282
			c-1.797,30.705-3.218,124.307-3.598,147.237c0,0.093,0,0.093,0,0.186v0.101c0.101,0.949-0.274,5.885-0.274,6.446
			c-0.093,2.843-0.287,5.683,0,8.529c0,0.38-0.093,0.565-0.093,0.853h25.213V1202.894z"/>
	</g>
	<g>
		<g>
			<path fill="#353535" d="M1501.629,1496.516c-9.533,18.604-26.854,25.749-41.256,25.749c-22.509,0-45.161-13.103-45.161-39.159
				v-39.514c0-25.888,22.652-39.171,45.659-39.171c14.068,0,31.056,5.999,40.26,26.39l-23.609,9.533
				c-7.775-14.229-33.334-10.992-33.334,3.248v39.514c0,13.739,25.889,17.646,32.207,1.75L1501.629,1496.516z"/>
			<path fill="#353535" d="M1509.449,1443.762c0-26.391,23.641-39.341,47.406-39.341c23.816,0,47.592,13.119,47.592,39.341v39.18
				c0,26.221-23.611,39.323-47.424,39.323c-23.808,0-47.574-13.103-47.574-39.323V1443.762z M1538.421,1482.941
				c0,8.411,9.369,12.447,18.603,12.447c9.238,0,18.443-4.205,18.443-12.447v-39.18c0-8.91-9.533-12.951-18.94-12.951
				c-9.04,0-18.105,4.539-18.105,12.951V1482.941z"/>
			<path fill="#353535" d="M1619.869,1406.049h28.976l24.108,55.99l24.268-55.99h28.967v114.596h-29.105l0.139-33.013l1.789-23.142
				l-0.958-0.16l-15.063,39.332h-19.902l-15.401-39.332l-0.793,0.16l1.953,23.142v33.013h-28.976V1406.049z"/>
			<path fill="#353535" d="M1744.378,1406.049h28.968l24.099,55.99l24.276-55.99h29.006v114.596h-29.137l0.131-33.013l1.789-23.142
				l-0.957-0.16l-15.072,39.332h-19.902l-15.367-39.332l-0.818,0.16l1.953,23.142v33.013h-28.968V1406.049z"/>
			<path fill="#353535" d="M1966.152,1520.645h-31.062l-7.441-23.007h-30.596l-7.121,23.007h-31.098l40.012-114.596h26.377
				L1966.152,1520.645z M1920.691,1471.943l-7.938-33.553h-0.806l-8.411,33.553H1920.691z"/>
			<path fill="#353535" d="M1973.81,1406.049h27.512l27.677,48.869l9.702,22.986l0.831-0.131c-0.169,0-3.084-19.771-3.248-19.771
				v-51.953h28.811v114.596h-29.309l-25.896-45.157l-10.027-22.985l-0.801,0.168l3.717,22.189v45.785h-28.968V1406.049z"/>
			<path fill="#353535" d="M2126.15,1406.049c22.978,0,44.504,11.655,44.504,38.336v38.557c0,26.348-21.526,37.863-44.504,37.703
				h-42.913v-114.596H2126.15z M2127.112,1493.461c9.896,0,14.405-5.027,14.405-12.477v-35.768c0-7.454-4.678-12.153-14.405-12.153
				h-14.739v60.397H2127.112z"/>
			<path fill="#353535" d="M2183.499,1443.762c0-26.391,23.61-39.341,47.414-39.341c23.771,0,47.583,13.119,47.583,39.341v39.18
				c0,26.221-23.648,39.323-47.422,39.323c-23.797,0-47.575-13.103-47.575-39.323V1443.762z M2212.441,1482.941
				c0,8.411,9.398,12.447,18.633,12.447c9.213,0,18.441-4.205,18.441-12.447v-39.18c0-8.91-9.562-12.951-18.932-12.951
				c-9.078,0-18.143,4.539-18.143,12.951V1482.941z"/>
		</g>
	</g>
</g>
</svg>
