<?xml version="1.0" encoding="UTF-8" standalone="no"?>
<!-- Created with Inkscape (http://www.inkscape.org/) -->

<svg
   xmlns:dc="http://purl.org/dc/elements/1.1/"
   xmlns:cc="http://creativecommons.org/ns#"
   xmlns:rdf="http://www.w3.org/1999/02/22-rdf-syntax-ns#"
   xmlns:svg="http://www.w3.org/2000/svg"
   xmlns="http://www.w3.org/2000/svg"
   xmlns:xlink="http://www.w3.org/1999/xlink"
   xmlns:sodipodi="http://sodipodi.sourceforge.net/DTD/sodipodi-0.dtd"
   xmlns:inkscape="http://www.inkscape.org/namespaces/inkscape"
   width="16"
   height="16"
   viewBox="0 0 16 16"
   id="svg4224"
   version="1.1"
   inkscape:version="0.91 r13725"
   inkscape:export-filename="/home/ben/dev/cdodev/logo/cdodev.ico"
   inkscape:export-xdpi="90"
   inkscape:export-ydpi="90"
   sodipodi:docname="just-dagger.svg">
  <defs
     id="defs4226">
    <linearGradient
       inkscape:collect="always"
       xlink:href="#SVGID_1_"
       id="linearGradient4157"
       gradientUnits="userSpaceOnUse"
       x1="1146.1938"
       y1="1567.3887"
       x2="1146.1938"
       y2="1333.3677" />
    <linearGradient
       y2="1333.3677"
       x2="1146.1938"
       y1="1567.3887"
       x1="1146.1938"
       gradientUnits="userSpaceOnUse"
       id="SVGID_1_">
      <stop
         id="stop3614"
         style="stop-color:#353535"
         offset="0" />
      <stop
         id="stop3616"
         style="stop-color:#595959"
         offset="1" />
    </linearGradient>
  </defs>
  <sodipodi:namedview
     id="base"
     pagecolor="#ffffff"
     bordercolor="#666666"
     borderopacity="1.0"
     inkscape:pageopacity="0.0"
     inkscape:pageshadow="2"
     inkscape:zoom="22.4"
     inkscape:cx="4.1369707"
     inkscape:cy="2.4549562"
     inkscape:document-units="px"
     inkscape:current-layer="layer1"
     showgrid="false"
     units="px"
     inkscape:window-width="958"
     inkscape:window-height="1052"
     inkscape:window-x="0"
     inkscape:window-y="26"
     inkscape:window-maximized="0" />
  <metadata
     id="metadata4229">
    <rdf:RDF>
      <cc:Work
         rdf:about="">
        <dc:format>image/svg+xml</dc:format>
        <dc:type
           rdf:resource="http://purl.org/dc/dcmitype/StillImage" />
        <dc:title />
      </cc:Work>
    </rdf:RDF>
  </metadata>
  <g
     inkscape:label="Layer 1"
     inkscape:groupmode="layer"
     id="layer1"
     transform="translate(0,-1036.3622)">
    <polygon
       style="fill:#939598"
       id="polygon4133"
       points="1291.023,1386.898 1218.548,1386.898 1316.385,1531.996 1218.548,1677.09 1291.023,1677.09 1387.244,1531.996 "
       transform="matrix(0.0269266,0,0,0.0269266,-23.133181,1004.0227)" />
    <path
       inkscape:connector-curvature="0"
       style="fill:#939598"
       d="m 1.779417,1045.2742 2.5912545,-3.907 1.9513976,0 -2.6343909,3.907 2.6343909,3.9069 -1.9513976,0 z"
       id="polygon4135" />
    <g
       id="g4565"
       transform="translate(-0.07012272,0)">
      <g
         transform="matrix(0.0269266,0,0,0.0269266,-23.133181,1004.0227)"
         id="g4137">
        <g
           id="g4139">
          <g
             id="g4141">
            <path
               style="fill:#686868"
               inkscape:connector-curvature="0"
               id="path4143"
               d="m 1183.983,1553.016 c 0,-0.628 -0.435,-5.664 -0.308,-6.521 0,0.034 0,0.034 0,-0.168 -0.397,-22.843 -1.789,-116.19 -3.569,-146.781 -0.599,-18.089 -1.363,-36.126 -2.413,-54.164 -1.405,-23.614 -5.441,-48.452 -8.082,-71.999 -2.219,-20.087 -5.442,-40.154 -8.243,-60.289 -0.279,-2.286 -1.126,-4.539 -1.734,-6.817 -0.257,0 -0.527,-3.357 -0.793,-3.383 -0.257,0.025 -0.527,3.383 -0.797,3.383 -0.625,2.278 -1.456,4.531 -1.713,6.817 -2.852,20.134 -6.07,40.201 -8.285,60.289 -2.645,23.547 -6.657,48.385 -8.002,71.999 -1.101,18.038 -1.865,36.075 -2.455,54.164 -1.789,30.591 -3.21,123.938 -3.577,146.781 0,0.202 0,0.202 0,0.168 0.093,0.857 -0.333,5.894 -0.333,6.521 -0.063,2.811 -0.295,5.688 0,8.514 0.101,0.793 0.038,1.455 -0.093,1.982 l 25.255,0 25.268,0 c -0.165,-0.527 -0.202,-1.189 -0.126,-1.982 0.295,-2.827 0.089,-5.704 0,-8.514 z m -3.155,-38.606 -21.986,-20.101 0,-111.946 18.316,14.531 c 0.856,2.752 3.67,117.516 3.67,117.516 z" />
          </g>
        </g>
      </g>
      <path
         style="fill:#353535"
         inkscape:connector-curvature="0"
         id="path4145"
         d="m 9.178739,1046.0914 -1.108595,0 -0.6789004,0 -0.4299101,0 c -0.1092682,0 -0.2008186,0.089 -0.2008186,0.1985 0,0.093 0.067693,0.1678 0.1551511,0.189 l 0.5982552,0 c -0.00226,0.01 -0.00501,0.01 -0.00716,0.016 l -0.013409,0.06 c -0.018175,0.093 -0.029081,0.2191 -0.035328,0.3316 -0.00194,0 -0.0017,0.01 -0.0017,0.012 -0.00102,0.024 -0.00159,0.049 -0.00226,0.073 -6.731e-4,0.022 -0.00148,0.04 -0.00205,0.058 -0.00191,0.064 -0.00237,0.1095 -0.00237,0.1095 0.00692,-3e-4 0.00614,0.01 0.0067,0.011 0,0 2.693e-4,0.01 0.0025,0.01 0.018633,-0.01 0.014298,0.023 0.030777,0.019 0.00102,0 0.00194,0.01 0.00215,0.012 5.655e-4,0.013 0,0.027 8.078e-4,0.041 0.00102,0.021 -0.00296,0.033 -0.028515,0.035 -0.00829,5e-4 -0.019199,0.018 -0.0276,0.028 -0.023049,0.028 -0.00649,0.058 -0.012736,0.087 -0.00396,0.018 0.016479,0.023 0.021137,0.037 0.00102,0 0.010905,0.01 0.010447,0.014 0,0 0.0025,0.01 0.00353,0.01 0.018283,0 0.024988,0.016 0.029996,0.025 0.0084,0.015 0.00396,0.036 0.0025,0.054 -6.732e-4,0.01 -0.020114,0.01 -0.016344,0.022 -0.016129,0 -0.017394,0.017 -0.030319,0.017 -0.00716,5e-4 -0.00625,0.01 -0.00649,0.01 -0.00226,0.037 -0.00205,0.075 0.00102,0.112 2.693e-4,0.01 -0.0017,0.018 0.011928,0.016 0.00547,-3e-4 0.00522,0.01 0.00547,0.01 2.692e-4,0 -7.809e-4,0.01 0.0042,0.01 0.018849,0 0.025796,0.018 0.028515,0.024 0.00705,0.016 0.00727,0.039 -6.732e-4,0.055 -0.00396,0.01 -0.011471,0.024 -0.028058,0.024 -0.019629,0 -0.035328,0.018 -0.036001,0.038 -0.00102,0.03 9.155e-4,0.06 -0.00124,0.09 -0.00124,0.014 0.019629,0.01 0.015671,0.022 0.015779,0 0.013059,0.023 0.029754,0.028 0.00773,0 0.022618,0.013 0.023049,0.029 5.654e-4,0.014 0.00102,0.029 8.078e-4,0.043 0,0.03 -0.011255,0.043 -0.039986,0.047 -0.00716,9e-4 -0.013975,7e-4 -0.012602,0.011 2.693e-4,0 2.693e-4,0 -5.654e-4,0 -0.029539,0.021 -0.010448,0.053 -0.015321,0.079 -0.00205,0.011 0,0.023 -3.5e-4,0.035 -2.693e-4,0.016 0.0017,0.027 0.022376,0.033 0.00773,0 0.02068,0.014 0.030319,0.023 0.0318,0.032 0.011148,0.069 0.01489,0.1028 4.578e-4,0 2.693e-4,0.01 -0.00374,0.01 -0.014433,0 -0.026577,0 -0.03872,0.015 -0.00592,0.01 -0.011363,0.01 -0.011363,0.018 2.692e-4,0.037 9.155e-4,0.075 0.00148,0.112 2.693e-4,0.014 0.020572,0.012 0.020787,0.025 0.011471,0 0.013625,0.01 0.019414,0.013 0.029081,0.017 0.031235,0.044 0.030562,0.072 -4.577e-4,0 -4.577e-4,0.01 -4.577e-4,0.014 -5.655e-4,0.025 -0.013517,0.038 -0.03829,0.04 -0.014433,6e-4 -0.031343,0.019 -0.030993,0.034 2.693e-4,0.017 -8.078e-4,0.034 6.732e-4,0.051 0.00124,0.014 -0.0084,0.031 0.011928,0.041 0.0025,9e-4 0.00215,0.01 0.00215,0.015 0,0.01 0.00501,0.01 0.011013,0.015 0.012844,0.01 0.027815,0.017 0.040659,0.026 0.010448,0.01 0.022834,0.02 0.019414,0.037 -4.577e-4,9e-4 0.00102,0 0.00148,0 0.031585,0 0.011928,0.028 0.015914,0.043 0.00102,0 7.809e-4,0.01 -0.00444,0.01 -0.01691,0 -0.012736,0.024 -0.029296,0.022 0.00738,0.019 -0.023399,0.013 -0.020895,0.029 2.692e-4,0 -0.00942,0 -0.014648,0 -0.00374,9e-4 -0.00875,-3e-4 -0.011928,0 -0.00942,0.01 -0.00592,0.016 -0.00501,0.024 0.0018,0.014 -0.00886,0.033 0.00703,0.04 0.010097,0.01 0.01034,0.01 0.010663,0.018 0,0.01 0.00137,0.013 2.693e-4,0.018 -0.00477,0.02 0.014083,0.025 0.023049,0.035 0.00897,0.01 0.021137,0.016 0.027842,0.028 2.692e-4,5e-4 2.692e-4,0 4.577e-4,0 0.036566,0.012 0.013975,0.042 0.019656,0.063 0.0017,0.01 -7.808e-4,0.012 -5.654e-4,0.018 3.5e-4,0.01 -0.00272,0.011 -0.011578,0.014 -0.010232,0 -0.017152,0.014 -0.026119,0.022 -0.029296,0.024 -0.016587,0.058 -0.012602,0.086 0.0025,0.02 0.00988,0.051 0.032258,0.059 0.01419,0.01 0.01489,0.022 0.030777,0.022 0.00501,0 0.00649,0.1016 0.00183,0.1014 -0.015698,0 -0.012494,0.024 -0.029862,0.019 -0.0067,0 -0.00568,0.01 -0.00625,0.011 -0.00272,0.035 0.00124,0.069 0.00102,0.1038 -2.693e-4,0 -4.577e-4,0.01 0.00399,0.01 0.020895,0 0.032258,0.022 0.045883,0.034 0.01419,0.012 0.026927,0.034 0.020437,0.059 -0.00226,0.01 -0.00124,0.016 -8.078e-4,0.024 0.00205,0.019 -0.012359,0.029 -0.024746,0.037 -0.024665,0.014 -0.031019,0.047 -0.012144,0.069 0.00692,0.01 0.00294,0.02 0.00364,0.029 0.00102,0.023 0.013975,0.038 0.036809,0.041 0.011713,0 0.029539,0.021 0.032258,0.032 0.00205,0.01 -0.00148,0.018 0.012494,0.022 0.00819,0 0.00444,0.046 -0.00353,0.052 -0.00194,0 -0.00646,0 -0.00646,0 0.00205,0.025 -0.011363,0.032 -0.033739,0.031 -0.00501,-4e-4 -0.00353,0.01 -0.00396,0.01 -0.00331,0.033 -8.078e-4,0.065 9.155e-4,0.098 3.5e-4,0.01 0.00159,0.011 0.00918,0.01 0.00794,-5e-4 0.011255,0 0.011255,0.011 0,0 0.00293,0.01 0.00692,0.01 0.021811,0 0.036459,0.012 0.041225,0.035 0,4e-4 4.578e-4,0 0.00102,0 0.031693,0.01 0.01489,0.031 0.018525,0.047 0.0018,0.01 5.655e-4,0.014 -2.692e-4,0.02 -0.00148,0.01 -0.00194,0.016 -0.014298,0.022 -0.011228,0 -0.019656,0.017 -0.034762,0.018 -0.00102,0 -0.0025,0.01 -0.0025,0.01 -0.00102,0.026 -0.00374,0.052 0.00364,0.077 0.00544,0.017 0.012036,0.036 0.036351,0.036 0.013625,-6e-4 0.016829,0.014 0.026577,0.02 0.021353,0.014 0.020114,0.04 0.017395,0.064 -0.00102,0.01 0.00215,0.017 -0.011013,0.017 -0.00547,4e-4 -0.00318,0.01 -0.0042,0.01 -0.00296,0.011 0.00477,0.025 -0.014083,0.029 -0.00501,6e-4 -0.00283,0.047 0.00237,0.048 0.012278,0 0.00977,0.011 0.00999,0.019 4.578e-4,0.014 0.00226,0.029 0.00102,0.043 0,7e-4 4.577e-4,0 4.577e-4,0 l 0.00501,0.1368 c -2.693e-4,0.012 4.577e-4,0.02 4.577e-4,0.02 l -4.577e-4,-2e-4 c 0.015564,0.1333 -0.019199,0.472 -0.019199,0.472 l -4.578e-4,-10e-4 c -0.00862,0.1048 -0.028515,0.2252 -0.068259,0.3606 l -0.00875,0.07 c -0.00215,0.07 0.017718,0.1308 0.061123,0.1877 0.00226,0 0.00646,0.011 0.00875,0.03 0.032716,0.192 0.091658,0.2552 0.2790673,0.2944 0.033281,0.01 0.066778,0.01 0.1000592,0.011 0.00603,2e-4 0.011928,0 0.01796,0 0.00148,0 0.00275,-3e-4 0.0042,-5e-4 0.00148,3e-4 0.00272,5e-4 0.0042,5e-4 0.00603,0 0.011928,0 0.017825,0 0.033389,0 0.066913,0 0.1001938,-0.011 0.1874092,-0.039 0.2462707,-0.1024 0.2790673,-0.2944 0.00226,-0.02 0.00649,-0.026 0.00875,-0.03 0.043406,-0.057 0.063277,-0.118 0.061123,-0.1877 l -0.00875,-0.07 c -0.039771,-0.1353 -0.059615,-0.2558 -0.068259,-0.3606 l -5.655e-4,10e-4 c 0,0 -0.034762,-0.3387 -0.019091,-0.472 l 2.692e-4,-0.01 c 2.693e-4,0 2.693e-4,0 2.693e-4,-0.01 l 0.00501,-0.1429 c -0.00124,-0.014 5.655e-4,-0.028 0.00102,-0.043 2.693e-4,-0.01 -0.00226,-0.016 0.00988,-0.019 0.00522,0 0.00751,-0.047 0.0025,-0.048 -0.018876,0 -0.011148,-0.018 -0.01419,-0.029 -9.155e-4,0 0.00135,-0.01 -0.0042,-0.01 -0.013059,-4e-4 -0.00988,-0.01 -0.010905,-0.017 -0.00275,-0.024 -0.00399,-0.05 0.017368,-0.064 0.00977,-0.01 0.012952,-0.021 0.026577,-0.02 0.024315,3e-4 0.030777,-0.018 0.036243,-0.035 0.00749,-0.025 0.00477,-0.051 0.00374,-0.077 0,0 -0.00148,-0.01 -0.0025,-0.01 -0.015106,-2e-4 -0.023615,-0.013 -0.034762,-0.018 -0.012359,-0.01 -0.012952,-0.012 -0.014298,-0.022 -8.078e-4,-0.01 -0.00205,-0.014 -3.5e-4,-0.02 0.00374,-0.016 -0.013167,-0.042 0.018633,-0.047 5.654e-4,-3e-4 0.00102,0 0.00102,0 0.00477,-0.023 0.019306,-0.033 0.041225,-0.034 0.00399,-3e-4 0.00692,0 0.00692,-0.01 0,-0.01 0.00318,-0.011 0.011148,-0.011 0.00773,5e-4 0.00897,0 0.00921,-0.01 0.0018,-0.032 0.0042,-0.065 0.00102,-0.098 -4.578e-4,0 0.00102,-0.01 -0.00399,-0.01 -0.022376,9e-4 -0.035785,-0.01 -0.033739,-0.031 0,0 -0.00452,0 -0.00646,0 -0.00794,-0.01 -0.011713,-0.049 -0.00353,-0.052 0.013975,0 0.010448,-0.014 0.012494,-0.022 0.00275,-0.012 0.020572,-0.031 0.032258,-0.032 0.022834,0 0.035785,-0.017 0.036809,-0.041 6.732e-4,-0.01 -0.00328,-0.021 0.00364,-0.029 0.018849,-0.022 0.012494,-0.054 -0.012171,-0.069 -0.012386,-0.01 -0.026819,-0.017 -0.02488,-0.037 5.655e-4,-0.01 0.00159,-0.017 -6.732e-4,-0.024 -0.00646,-0.024 0.00614,-0.047 0.02033,-0.059 0.013733,-0.012 0.025096,-0.031 0.045991,-0.034 0.00444,-8e-4 0.0042,-0.01 0.00396,-0.01 -3.501e-4,-0.035 0.00374,-0.069 0.00102,-0.1038 -5.655e-4,0 4.577e-4,-0.013 -0.00625,-0.01 -0.017395,0.01 -0.01419,-0.02 -0.029889,-0.019 -0.00466,3e-4 -0.00318,-0.1013 0.00183,-0.1013 0.015887,0 0.016587,-0.017 0.030777,-0.022 0.022376,-0.01 0.029754,-0.039 0.032258,-0.059 0.00399,-0.027 0.016694,-0.061 -0.012602,-0.086 -0.00897,-0.01 -0.015914,-0.018 -0.026146,-0.022 -0.00897,0 -0.011928,-0.01 -0.011686,-0.014 3.501e-4,-0.01 -0.00215,-0.013 -4.577e-4,-0.018 0.00568,-0.022 -0.01691,-0.052 0.019656,-0.063 2.693e-4,-3e-4 2.693e-4,0 4.577e-4,0 0.0067,-0.012 0.018849,-0.018 0.027842,-0.028 0.00897,-0.01 0.027815,-0.015 0.023049,-0.035 -0.00124,-0.01 2.693e-4,-0.012 2.693e-4,-0.018 2.693e-4,-0.01 5.654e-4,-0.013 0.010663,-0.018 0.015887,-0.01 0.00522,-0.026 0.00705,-0.04 9.155e-4,-0.01 0.00444,-0.018 -0.00501,-0.024 -0.00318,0 -0.00819,-5e-4 -0.011928,0 -0.00522,0 -0.014863,0 -0.014648,0 0.0025,-0.016 -0.028273,-0.01 -0.020895,-0.029 -0.016587,0 -0.012359,-0.023 -0.029296,-0.022 -0.00522,5e-4 -0.00544,-0.01 -0.00444,-0.01 0.00399,-0.014 -0.015671,-0.038 0.015914,-0.042 4.578e-4,-3e-4 0.00194,0 0.00148,0 -0.00353,-0.018 0.00897,-0.03 0.019306,-0.037 0.012952,-0.01 0.027815,-0.016 0.040767,-0.027 0.00603,0 0.010905,-0.01 0.010905,-0.015 0,-0.01 -2.692e-4,-0.014 0.00226,-0.015 0.020329,-0.01 0.010663,-0.026 0.011928,-0.04 0.00148,-0.017 4.578e-4,-0.034 6.732e-4,-0.051 2.693e-4,-0.015 -0.016587,-0.033 -0.030992,-0.034 -0.02488,0 -0.037697,-0.015 -0.038263,-0.04 0,0 0,-0.01 -4.578e-4,-0.014 -6.731e-4,-0.029 0.00148,-0.055 0.030562,-0.072 0.00568,0 0.00794,-0.015 0.019414,-0.013 2.693e-4,-0.014 0.020572,-0.011 0.020787,-0.025 5.655e-4,-0.037 0.00124,-0.075 0.00148,-0.1119 0,-0.01 -0.00547,-0.012 -0.011363,-0.018 -0.012279,-0.012 -0.024315,-0.014 -0.038721,-0.016 -0.00399,-8e-4 -0.0042,0 -0.00374,-0.01 0.00374,-0.034 -0.016937,-0.071 0.014864,-0.1029 0.00967,-0.01 0.022591,-0.021 0.030319,-0.023 0.020572,-0.01 0.022591,-0.017 0.022268,-0.033 -2.693e-4,-0.012 0.0018,-0.024 -2.693e-4,-0.034 -0.00501,-0.026 0.01419,-0.057 -0.015321,-0.079 -8.078e-4,-7e-4 -8.078e-4,0 -5.655e-4,0 0.00124,-0.01 -0.00544,-0.01 -0.012602,-0.011 -0.028865,0 -0.039986,-0.017 -0.039986,-0.047 -2.693e-4,-0.014 2.692e-4,-0.029 7.808e-4,-0.043 4.578e-4,-0.015 0.015321,-0.026 0.023049,-0.029 0.016587,-0.01 0.013867,-0.026 0.029754,-0.028 -0.00396,-0.013 0.01691,-0.01 0.015671,-0.022 -0.00226,-0.03 -2.693e-4,-0.06 -0.00124,-0.09 -6.731e-4,-0.02 -0.016344,-0.037 -0.036001,-0.038 -0.016694,-8e-4 -0.024099,-0.016 -0.028057,-0.024 -0.00794,-0.016 -0.00773,-0.039 -8.078e-4,-0.055 0.00283,-0.01 0.00967,-0.027 0.028623,-0.024 0.0049,7e-4 0.00399,-0.01 0.0042,-0.01 2.693e-4,0 0,-0.01 0.00547,-0.01 0.013625,0 0.011713,-0.01 0.011928,-0.016 0.00296,-0.037 0.00328,-0.075 0.00102,-0.1119 -2.693e-4,0 6.731e-4,-0.01 -0.00649,-0.01 -0.012952,-6e-4 -0.01419,-0.022 -0.030319,-0.017 0.00374,-0.014 -0.015698,-0.012 -0.016344,-0.022 -0.00148,-0.018 -0.00603,-0.039 0.0025,-0.054 0.00501,-0.01 0.011579,-0.027 0.029969,-0.025 0.00102,3e-4 0.00353,0 0.00353,-0.01 -5.654e-4,-0.01 0.00942,-0.012 0.010448,-0.014 0.00466,-0.014 0.025096,-0.019 0.021003,-0.037 -0.00614,-0.028 0.010447,-0.059 -0.012602,-0.087 -0.0084,-0.01 -0.019414,-0.027 -0.0276,-0.028 -0.025553,0 -0.029539,-0.014 -0.028515,-0.035 7.809e-4,-0.013 2.693e-4,-0.027 7.809e-4,-0.041 2.693e-4,0 0.00113,-0.01 0.00215,-0.012 0.016479,0 0.012171,-0.026 0.030777,-0.019 0.00226,9e-4 0.0025,-0.01 0.0025,-0.01 4.578e-4,0 -2.693e-4,-0.011 0.0067,-0.01 0,0 -4.577e-4,-0.045 -0.0025,-0.1095 -4.578e-4,-0.018 -0.00124,-0.037 -0.00194,-0.058 -7.808e-4,-0.024 -0.00124,-0.049 -0.00226,-0.073 0,0 2.693e-4,-0.01 -0.0017,-0.012 -0.00625,-0.1125 -0.017152,-0.2385 -0.035328,-0.3316 l -0.013409,-0.06 c -0.00226,-0.01 -0.00501,-0.01 -0.00716,-0.016 l 0.5785988,0 c 0.088696,-0.021 0.1547202,-0.096 0.1547202,-0.189 -2.692e-4,-0.1095 -0.0891,-0.1984 -0.2010878,-0.1984 z" />
      <g
         transform="matrix(0.0269266,0,0,0.0269266,-23.133181,1004.0227)"
         id="g4147">
        <linearGradient
           y2="1333.3677"
           x2="1146.1938"
           y1="1567.3887"
           x1="1146.1938"
           gradientUnits="userSpaceOnUse"
           id="linearGradient4149">
          <stop
             id="stop4151"
             style="stop-color:#353535"
             offset="0" />
          <stop
             id="stop4153"
             style="stop-color:#595959"
             offset="1" />
        </linearGradient>
        <path
           inkscape:connector-curvature="0"
           style="fill:url(#linearGradient4157)"
           id="path4155"
           d="m 1158.829,1202.894 c -0.283,0 -0.477,3.413 -0.755,3.413 -0.662,2.278 -1.514,4.556 -1.704,6.825 -2.923,20.176 -6.133,40.365 -8.31,60.445 -2.636,23.686 -6.707,48.616 -8.027,72.302 -1.131,18.084 -1.89,36.19 -2.451,54.282 -1.797,30.705 -3.218,124.307 -3.598,147.237 0,0.093 0,0.093 0,0.186 l 0,0.101 c 0.101,0.949 -0.274,5.885 -0.274,6.446 -0.093,2.843 -0.287,5.683 0,8.529 0,0.38 -0.093,0.565 -0.093,0.853 l 25.213,0 0,-360.619 z" />
      </g>
    </g>
  </g>
</svg>
