<?xml version="1.0" encoding="UTF-8" standalone="no"?>
<!-- Created with Inkscape (http://www.inkscape.org/) -->

<svg
   xmlns:dc="http://purl.org/dc/elements/1.1/"
   xmlns:cc="http://creativecommons.org/ns#"
   xmlns:rdf="http://www.w3.org/1999/02/22-rdf-syntax-ns#"
   xmlns:svg="http://www.w3.org/2000/svg"
   xmlns="http://www.w3.org/2000/svg"
   xmlns:xlink="http://www.w3.org/1999/xlink"
   xmlns:sodipodi="http://sodipodi.sourceforge.net/DTD/sodipodi-0.dtd"
   xmlns:inkscape="http://www.inkscape.org/namespaces/inkscape"
   width="16"
   height="16"
   viewBox="0 0 16 16"
   id="svg4224"
   version="1.1"
   inkscape:version="0.91 r13725"
   inkscape:export-filename="/home/ben/dev/perurbis.com/logo/cdodev.ico"
   inkscape:export-xdpi="90"
   inkscape:export-ydpi="90"
   sodipodi:docname="just-dagger.svg">
  <defs
     id="defs4226">
    <linearGradient
       inkscape:collect="always"
       xlink:href="#SVGID_1_"
       id="linearGradient4157"
       gradientUnits="userSpaceOnUse"
       x1="1146.1938"
       y1="1567.3887"
       x2="1146.1938"
       y2="1333.3677" />
    <linearGradient
       y2="1333.3677"
       x2="1146.1938"
       y1="1567.3887"
       x1="1146.1938"
       gradientUnits="userSpaceOnUse"
       id="SVGID_1_">
      <stop
         id="stop3614"
         style="stop-color:#353535"
         offset="0" />
      <stop
         id="stop3616"
         style="stop-color:#595959"
         offset="1" />
    </linearGradient>
  </defs>
  <sodipodi:namedview
     id="base"
     pagecolor="#ffffff"
     bordercolor="#666666"
     borderopacity="1.0"
     inkscape:pageopacity="0.0"
     inkscape:pageshadow="2"
     inkscape:zoom="22.4"
     inkscape:cx="3.891435"
     inkscape:cy="6.0263848"
     inkscape:document-units="px"
     inkscape:current-layer="layer1"
     showgrid="false"
     units="px"
     inkscape:window-width="958"
     inkscape:window-height="1052"
     inkscape:window-x="0"
     inkscape:window-y="26"
     inkscape:window-maximized="0" />
  <metadata
     id="metadata4229">
    <rdf:RDF>
      <cc:Work
         rdf:about="">
        <dc:format>image/svg+xml</dc:format>
        <dc:type
           rdf:resource="http://purl.org/dc/dcmitype/StillImage" />
        <dc:title></dc:title>
      </cc:Work>
    </rdf:RDF>
  </metadata>
  <g
     inkscape:label="Layer 1"
     inkscape:groupmode="layer"
     id="layer1"
     transform="translate(0,-1036.3622)">
    <g
       transform="matrix(0.0269266,0,0,0.0269266,-23.133181,1029.4739)"
       id="g4185"
       inkscape:export-xdpi="90"
       inkscape:export-ydpi="90">
      <polygon
         transform="translate(0,-945.20548)"
         points="1291.023,1677.09 1387.244,1531.996 1291.023,1386.898 1218.548,1386.898 1316.385,1531.996 1218.548,1677.09 "
         id="polygon4133"
         style="fill:#939598" />
      <path
         id="polygon4135"
         d="m 925.204,586.79052 96.234,-145.098 72.471,0 -97.836,145.098 97.836,145.094 -72.471,0 z"
         style="fill:#939598"
         inkscape:connector-curvature="0" />
      <g
         transform="translate(0,-945.20548)"
         id="g4137">
        <g
           id="g4139">
          <g
             id="g4141">
            <path
               style="fill:#686868"
               inkscape:connector-curvature="0"
               id="path4143"
               d="m 1183.983,1553.016 c 0,-0.628 -0.435,-5.664 -0.308,-6.521 0,0.034 0,0.034 0,-0.168 -0.397,-22.843 -1.789,-116.19 -3.569,-146.781 -0.599,-18.089 -1.363,-36.126 -2.413,-54.164 -1.405,-23.614 -5.441,-48.452 -8.082,-71.999 -2.219,-20.087 -5.442,-40.154 -8.243,-60.289 -0.279,-2.286 -1.126,-4.539 -1.734,-6.817 -0.257,0 -0.527,-3.357 -0.793,-3.383 -0.257,0.025 -0.527,3.383 -0.797,3.383 -0.625,2.278 -1.456,4.531 -1.713,6.817 -2.852,20.134 -6.07,40.201 -8.285,60.289 -2.645,23.547 -6.657,48.385 -8.002,71.999 -1.101,18.038 -1.865,36.075 -2.455,54.164 -1.789,30.591 -3.21,123.938 -3.577,146.781 0,0.202 0,0.202 0,0.168 0.093,0.857 -0.333,5.894 -0.333,6.521 -0.063,2.811 -0.295,5.688 0,8.514 0.101,0.793 0.038,1.455 -0.093,1.982 l 25.255,0 25.268,0 c -0.165,-0.527 -0.202,-1.189 -0.126,-1.982 0.295,-2.827 0.089,-5.704 0,-8.514 z m -3.155,-38.606 -21.986,-20.101 0,-111.946 18.316,14.531 c 0.856,2.752 3.67,117.516 3.67,117.516 z" />
          </g>
        </g>
      </g>
      <path
         style="fill:#353535"
         inkscape:connector-curvature="0"
         id="path4145"
         d="m 1200,617.14252 -41.171,0 -25.213,0 -15.966,0 c -4.058,0 -7.458,3.303 -7.458,7.369 0,3.459 2.514,6.234 5.762,7.02 l 22.218,0 c -0.084,0.231 -0.186,0.324 -0.266,0.611 l -0.498,2.236 c -0.675,3.459 -1.08,8.137 -1.312,12.316 -0.072,0.127 -0.063,0.305 -0.063,0.439 -0.038,0.902 -0.059,1.81 -0.084,2.713 -0.025,0.805 -0.055,1.484 -0.076,2.168 -0.071,2.387 -0.088,4.066 -0.088,4.066 0.257,-0.01 0.228,0.215 0.249,0.388 0,0.122 0.01,0.358 0.093,0.325 0.692,-0.232 0.531,0.864 1.143,0.717 0.038,0.147 0.072,0.287 0.08,0.443 0.021,0.498 0,1.008 0.03,1.506 0.038,0.764 -0.11,1.24 -1.059,1.299 -0.308,0.018 -0.713,0.654 -1.025,1.037 -0.856,1.047 -0.241,2.169 -0.473,3.224 -0.147,0.675 0.612,0.856 0.785,1.375 0.038,0.093 0.405,0.22 0.388,0.532 0,0.075 0.093,0.24 0.131,0.231 0.679,-0.08 0.928,0.611 1.114,0.933 0.312,0.561 0.147,1.324 0.093,2.008 -0.025,0.379 -0.747,0.287 -0.607,0.822 -0.599,-0.164 -0.646,0.62 -1.126,0.646 -0.266,0.017 -0.232,0.211 -0.241,0.38 -0.084,1.383 -0.076,2.775 0.038,4.158 0.01,0.267 -0.063,0.654 0.443,0.6 0.203,-0.01 0.194,0.194 0.203,0.342 0.01,0.139 -0.029,0.384 0.156,0.358 0.7,-0.109 0.958,0.658 1.059,0.886 0.262,0.607 0.27,1.439 -0.025,2.051 -0.147,0.312 -0.426,0.873 -1.042,0.902 -0.729,0.042 -1.312,0.671 -1.337,1.4 -0.038,1.113 0.034,2.231 -0.046,3.328 -0.046,0.536 0.729,0.316 0.582,0.814 0.586,0.072 0.485,0.848 1.105,1.037 0.287,0.085 0.84,0.49 0.856,1.063 0.021,0.527 0.038,1.063 0.03,1.595 0,1.105 -0.418,1.578 -1.485,1.738 -0.266,0.033 -0.519,0.025 -0.468,0.404 0.01,0.051 0.01,0.118 -0.021,0.144 -1.097,0.793 -0.388,1.948 -0.569,2.919 -0.076,0.405 0,0.844 -0.013,1.283 -0.01,0.607 0.063,1.012 0.831,1.24 0.287,0.084 0.768,0.527 1.126,0.868 1.181,1.198 0.414,2.548 0.553,3.821 0.017,0.127 0.01,0.275 -0.139,0.305 -0.536,0.059 -0.987,0.127 -1.438,0.578 -0.22,0.223 -0.422,0.367 -0.422,0.684 0.01,1.383 0.034,2.775 0.055,4.158 0.01,0.536 0.764,0.426 0.772,0.941 0.426,-0.076 0.506,0.362 0.721,0.489 1.08,0.646 1.16,1.62 1.135,2.69 -0.017,0.186 -0.017,0.363 -0.017,0.537 -0.021,0.923 -0.502,1.43 -1.422,1.496 -0.536,0.025 -1.164,0.718 -1.151,1.262 0.01,0.629 -0.03,1.262 0.025,1.882 0.046,0.519 -0.312,1.159 0.443,1.506 0.093,0.034 0.08,0.376 0.08,0.569 0,0.312 0.186,0.367 0.409,0.545 0.477,0.379 1.033,0.632 1.51,0.986 0.388,0.287 0.848,0.734 0.721,1.393 -0.017,0.033 0.038,0.117 0.055,0.126 1.173,0.177 0.443,1.046 0.591,1.577 0.038,0.14 0.029,0.381 -0.165,0.363 -0.628,-0.059 -0.473,0.886 -1.088,0.802 0.274,0.726 -0.869,0.481 -0.776,1.097 0.01,0.038 -0.35,0.127 -0.544,0.178 -0.139,0.033 -0.325,-0.01 -0.443,0.05 -0.35,0.224 -0.22,0.612 -0.186,0.886 0.067,0.52 -0.329,1.219 0.261,1.498 0.375,0.189 0.384,0.367 0.396,0.662 0,0.219 0.051,0.473 0.01,0.675 -0.177,0.747 0.523,0.929 0.856,1.291 0.333,0.358 0.785,0.599 1.034,1.042 0.01,0.021 0.01,0.062 0.017,0.071 1.358,0.427 0.519,1.553 0.73,2.354 0.063,0.202 -0.029,0.442 -0.021,0.674 0.013,0.321 -0.101,0.414 -0.43,0.523 -0.38,0.131 -0.637,0.536 -0.97,0.802 -1.088,0.903 -0.616,2.169 -0.468,3.185 0.093,0.756 0.367,1.898 1.198,2.193 0.527,0.186 0.553,0.823 1.143,0.823 0.186,0 0.241,3.771 0.068,3.763 -0.583,-0.059 -0.464,0.902 -1.109,0.7 -0.249,-0.076 -0.211,0.211 -0.232,0.388 -0.101,1.291 0.046,2.564 0.038,3.855 -0.01,0.11 -0.017,0.274 0.148,0.305 0.776,0.126 1.198,0.826 1.704,1.281 0.527,0.461 1,1.283 0.759,2.194 -0.084,0.295 -0.046,0.607 -0.03,0.911 0.076,0.721 -0.459,1.088 -0.919,1.367 -0.916,0.535 -1.152,1.732 -0.451,2.556 0.257,0.304 0.109,0.726 0.135,1.089 0.038,0.869 0.519,1.408 1.367,1.51 0.435,0.059 1.097,0.768 1.198,1.197 0.076,0.287 -0.055,0.676 0.464,0.803 0.304,0.075 0.165,1.708 -0.131,1.914 -0.072,0.043 -0.24,0.089 -0.24,0.127 0.076,0.932 -0.422,1.198 -1.253,1.164 -0.186,-0.012 -0.131,0.236 -0.147,0.375 -0.123,1.211 -0.03,2.426 0.034,3.624 0.013,0.232 0.059,0.397 0.341,0.38 0.295,-0.018 0.418,0.127 0.418,0.396 0,0.156 0.109,0.211 0.257,0.219 0.81,0.068 1.354,0.436 1.531,1.283 0,0.017 0.017,0.051 0.038,0.059 1.177,0.211 0.553,1.152 0.688,1.76 0.067,0.24 0.021,0.519 -0.01,0.755 -0.055,0.346 -0.072,0.591 -0.531,0.802 -0.417,0.186 -0.73,0.648 -1.291,0.658 -0.038,0 -0.093,0.219 -0.093,0.328 -0.038,0.962 -0.139,1.932 0.135,2.852 0.202,0.637 0.447,1.329 1.35,1.32 0.506,-0.021 0.625,0.516 0.987,0.756 0.793,0.535 0.747,1.484 0.646,2.379 -0.038,0.278 0.08,0.629 -0.409,0.645 -0.203,0.014 -0.118,0.241 -0.156,0.367 -0.11,0.389 0.177,0.938 -0.523,1.063 -0.186,0.025 -0.105,1.733 0.088,1.78 0.456,0.093 0.363,0.413 0.371,0.691 0.017,0.536 0.084,1.072 0.038,1.586 0,0.025 0.017,0.047 0.017,0.076 l 0.186,5.079 c -0.01,0.435 0.017,0.759 0.017,0.759 l -0.017,-0.01 c 0.578,4.952 -0.713,17.531 -0.713,17.531 l -0.017,-0.038 c -0.32,3.894 -1.059,8.365 -2.535,13.394 l -0.325,2.59 c -0.08,2.59 0.658,4.859 2.27,6.973 0.084,0.156 0.24,0.396 0.325,1.127 1.215,7.129 3.404,9.479 10.364,10.934 1.236,0.278 2.48,0.371 3.716,0.418 0.224,0.01 0.443,0.071 0.667,0.071 0.055,0 0.102,-0.01 0.156,-0.017 0.055,0.01 0.101,0.017 0.156,0.017 0.224,0 0.443,-0.063 0.662,-0.071 1.24,-0.047 2.485,-0.14 3.721,-0.418 6.96,-1.455 9.146,-3.805 10.364,-10.934 0.084,-0.73 0.241,-0.971 0.325,-1.127 1.612,-2.113 2.35,-4.383 2.27,-6.973 l -0.325,-2.59 c -1.477,-5.028 -2.214,-9.5 -2.535,-13.394 l -0.021,0.038 c 0,0 -1.291,-12.579 -0.709,-17.531 l 0.01,-0.316 c 0.01,-0.102 0.01,-0.131 0.01,-0.283 l 0.186,-5.307 c -0.046,-0.514 0.021,-1.05 0.038,-1.586 0.01,-0.278 -0.084,-0.599 0.367,-0.691 0.194,-0.047 0.279,-1.755 0.093,-1.78 -0.701,-0.126 -0.414,-0.675 -0.527,-1.063 -0.034,-0.126 0.05,-0.354 -0.156,-0.367 -0.485,-0.016 -0.367,-0.366 -0.405,-0.645 -0.102,-0.895 -0.148,-1.844 0.645,-2.379 0.363,-0.24 0.481,-0.776 0.987,-0.756 0.903,0.01 1.143,-0.684 1.346,-1.32 0.278,-0.92 0.177,-1.89 0.139,-2.852 0,-0.109 -0.055,-0.328 -0.093,-0.328 -0.561,-0.01 -0.877,-0.473 -1.291,-0.658 -0.459,-0.211 -0.481,-0.456 -0.531,-0.802 -0.03,-0.236 -0.076,-0.515 -0.013,-0.755 0.139,-0.607 -0.489,-1.549 0.692,-1.76 0.021,-0.01 0.038,-0.042 0.038,-0.059 0.177,-0.848 0.717,-1.215 1.531,-1.283 0.148,-0.01 0.257,-0.062 0.257,-0.219 0,-0.27 0.118,-0.414 0.414,-0.396 0.287,0.018 0.333,-0.147 0.342,-0.38 0.067,-1.198 0.156,-2.413 0.038,-3.624 -0.017,-0.139 0.038,-0.387 -0.148,-0.375 -0.831,0.034 -1.329,-0.232 -1.253,-1.164 0,-0.038 -0.168,-0.084 -0.24,-0.127 -0.295,-0.206 -0.435,-1.839 -0.131,-1.914 0.519,-0.127 0.388,-0.516 0.464,-0.803 0.102,-0.43 0.764,-1.139 1.198,-1.197 0.848,-0.102 1.329,-0.641 1.367,-1.51 0.025,-0.363 -0.122,-0.785 0.135,-1.089 0.7,-0.823 0.464,-2.021 -0.452,-2.556 -0.46,-0.279 -0.996,-0.646 -0.924,-1.367 0.021,-0.304 0.059,-0.616 -0.025,-0.911 -0.24,-0.911 0.228,-1.733 0.755,-2.194 0.51,-0.455 0.932,-1.155 1.708,-1.281 0.165,-0.03 0.156,-0.194 0.147,-0.305 -0.013,-1.291 0.139,-2.564 0.038,-3.855 -0.021,-0.177 0.017,-0.464 -0.232,-0.388 -0.646,0.202 -0.527,-0.759 -1.11,-0.7 -0.173,0.01 -0.118,-3.763 0.068,-3.763 0.59,0 0.616,-0.638 1.143,-0.823 0.831,-0.295 1.105,-1.438 1.198,-2.193 0.148,-1.016 0.62,-2.281 -0.468,-3.185 -0.333,-0.266 -0.591,-0.671 -0.971,-0.802 -0.333,-0.109 -0.443,-0.202 -0.434,-0.523 0.013,-0.231 -0.08,-0.472 -0.017,-0.674 0.211,-0.802 -0.628,-1.928 0.73,-2.354 0.01,-0.01 0.01,-0.05 0.017,-0.071 0.249,-0.443 0.7,-0.684 1.034,-1.042 0.333,-0.362 1.033,-0.544 0.856,-1.291 -0.046,-0.202 0.01,-0.456 0.01,-0.675 0.01,-0.295 0.021,-0.473 0.396,-0.662 0.59,-0.279 0.194,-0.979 0.262,-1.498 0.034,-0.273 0.165,-0.662 -0.186,-0.886 -0.118,-0.06 -0.304,-0.017 -0.443,-0.05 -0.194,-0.051 -0.552,-0.14 -0.544,-0.178 0.093,-0.615 -1.05,-0.371 -0.776,-1.097 -0.616,0.084 -0.459,-0.86 -1.088,-0.802 -0.194,0.018 -0.202,-0.224 -0.165,-0.363 0.148,-0.531 -0.582,-1.4 0.591,-1.577 0.017,-0.01 0.072,-0.093 0.055,-0.126 -0.131,-0.658 0.333,-1.105 0.717,-1.393 0.481,-0.354 1.033,-0.607 1.514,-0.986 0.224,-0.178 0.405,-0.232 0.405,-0.545 0,-0.193 -0.01,-0.535 0.084,-0.569 0.755,-0.347 0.396,-0.987 0.443,-1.506 0.055,-0.62 0.017,-1.253 0.025,-1.882 0.01,-0.544 -0.616,-1.236 -1.151,-1.262 -0.924,-0.066 -1.4,-0.573 -1.421,-1.496 0,-0.174 0,-0.352 -0.017,-0.537 -0.025,-1.07 0.055,-2.045 1.135,-2.69 0.211,-0.127 0.295,-0.565 0.721,-0.489 0.01,-0.516 0.764,-0.405 0.772,-0.941 0.021,-1.383 0.046,-2.775 0.055,-4.158 0,-0.316 -0.203,-0.461 -0.422,-0.684 -0.456,-0.451 -0.903,-0.52 -1.438,-0.578 -0.148,-0.029 -0.156,-0.178 -0.139,-0.305 0.139,-1.273 -0.629,-2.623 0.552,-3.821 0.359,-0.341 0.839,-0.784 1.126,-0.868 0.764,-0.229 0.839,-0.633 0.827,-1.24 -0.01,-0.439 0.067,-0.878 -0.01,-1.283 -0.186,-0.971 0.527,-2.126 -0.569,-2.919 -0.03,-0.025 -0.03,-0.093 -0.021,-0.144 0.046,-0.379 -0.202,-0.371 -0.468,-0.404 -1.072,-0.16 -1.485,-0.633 -1.485,-1.738 -0.01,-0.531 0.01,-1.067 0.029,-1.595 0.017,-0.573 0.569,-0.979 0.856,-1.063 0.616,-0.189 0.515,-0.965 1.105,-1.037 -0.147,-0.498 0.628,-0.278 0.582,-0.814 -0.084,-1.097 -0.01,-2.215 -0.046,-3.328 -0.025,-0.729 -0.607,-1.358 -1.337,-1.4 -0.62,-0.029 -0.895,-0.591 -1.042,-0.902 -0.295,-0.611 -0.287,-1.443 -0.03,-2.051 0.105,-0.228 0.359,-0.995 1.063,-0.886 0.182,0.025 0.148,-0.22 0.156,-0.358 0.01,-0.147 0,-0.35 0.203,-0.342 0.506,0.055 0.435,-0.333 0.443,-0.6 0.11,-1.383 0.122,-2.775 0.038,-4.158 -0.01,-0.169 0.025,-0.363 -0.241,-0.38 -0.481,-0.025 -0.527,-0.81 -1.126,-0.646 0.139,-0.535 -0.583,-0.443 -0.607,-0.822 -0.055,-0.684 -0.224,-1.447 0.093,-2.008 0.186,-0.321 0.43,-1.013 1.113,-0.933 0.038,0.01 0.131,-0.156 0.131,-0.231 -0.021,-0.312 0.35,-0.439 0.388,-0.532 0.173,-0.519 0.932,-0.7 0.78,-1.375 -0.228,-1.055 0.388,-2.177 -0.468,-3.224 -0.312,-0.383 -0.721,-1.02 -1.025,-1.037 -0.949,-0.059 -1.097,-0.535 -1.059,-1.299 0.029,-0.498 0.01,-1.008 0.029,-1.506 0.01,-0.156 0.042,-0.296 0.08,-0.443 0.612,0.147 0.452,-0.949 1.143,-0.717 0.084,0.033 0.093,-0.203 0.093,-0.325 0.017,-0.173 -0.01,-0.396 0.249,-0.388 0,0 -0.017,-1.68 -0.093,-4.066 -0.017,-0.684 -0.046,-1.363 -0.072,-2.168 -0.029,-0.903 -0.046,-1.811 -0.084,-2.713 0,-0.135 0.01,-0.312 -0.063,-0.439 -0.232,-4.18 -0.637,-8.857 -1.312,-12.316 l -0.498,-2.236 c -0.084,-0.287 -0.186,-0.38 -0.266,-0.611 l 21.488,0 c 3.294,-0.785 5.746,-3.561 5.746,-7.02 -0.01,-4.067 -3.309,-7.369 -7.468,-7.369 z" />
      <g
         transform="translate(0,-945.20548)"
         id="g4147">
        <linearGradient
           y2="1333.3677"
           x2="1146.1938"
           y1="1567.3887"
           x1="1146.1938"
           gradientUnits="userSpaceOnUse"
           id="linearGradient4149">
          <stop
             id="stop4151"
             style="stop-color:#353535"
             offset="0" />
          <stop
             id="stop4153"
             style="stop-color:#595959"
             offset="1" />
        </linearGradient>
        <path
           inkscape:connector-curvature="0"
           style="fill:url(#linearGradient4157)"
           id="path4155"
           d="m 1158.829,1202.894 c -0.283,0 -0.477,3.413 -0.755,3.413 -0.662,2.278 -1.514,4.556 -1.704,6.825 -2.923,20.176 -6.133,40.365 -8.31,60.445 -2.636,23.686 -6.707,48.616 -8.027,72.302 -1.131,18.084 -1.89,36.19 -2.451,54.282 -1.797,30.705 -3.218,124.307 -3.598,147.237 0,0.093 0,0.093 0,0.186 l 0,0.101 c 0.101,0.949 -0.274,5.885 -0.274,6.446 -0.093,2.843 -0.287,5.683 0,8.529 0,0.38 -0.093,0.565 -0.093,0.853 l 25.213,0 0,-360.619 z" />
      </g>
    </g>
  </g>
</svg>
