<?xml version="1.0" encoding="UTF-8" standalone="no"?>
<!-- Generator: Adobe Illustrator 16.0.0, SVG Export Plug-In . SVG Version: 6.00 Build 0)  -->

<svg
   xmlns:dc="http://purl.org/dc/elements/1.1/"
   xmlns:cc="http://creativecommons.org/ns#"
   xmlns:rdf="http://www.w3.org/1999/02/22-rdf-syntax-ns#"
   xmlns:svg="http://www.w3.org/2000/svg"
   xmlns="http://www.w3.org/2000/svg"
   xmlns:sodipodi="http://sodipodi.sourceforge.net/DTD/sodipodi-0.dtd"
   xmlns:inkscape="http://www.inkscape.org/namespaces/inkscape"
   version="1.1"
   id="Layer_1"
   x="0px"
   y="0px"
   width="236.75856"
   height="99.999077"
   viewBox="0 0 236.75856 99.999077"
   enable-background="new 0 0 3000 3000"
   xml:space="preserve"
   inkscape:version="0.91 r13725"
   sodipodi:docname="logo.svg"><metadata
     id="metadata3644"><rdf:RDF><cc:Work
         rdf:about=""><dc:format>image/svg+xml</dc:format><dc:type
           rdf:resource="http://purl.org/dc/dcmitype/StillImage" /><dc:title></dc:title></cc:Work></rdf:RDF></metadata><defs
     id="defs3642" /><sodipodi:namedview
     pagecolor="#ffffff"
     bordercolor="#666666"
     borderopacity="1"
     objecttolerance="10"
     gridtolerance="10"
     guidetolerance="10"
     inkscape:pageopacity="0"
     inkscape:pageshadow="2"
     inkscape:window-width="1918"
     inkscape:window-height="1052"
     id="namedview3640"
     showgrid="false"
     fit-margin-top="0"
     fit-margin-left="0"
     fit-margin-right="0"
     fit-margin-bottom="0"
     inkscape:zoom="4.672"
     inkscape:cx="113.78152"
     inkscape:cy="31.62371"
     inkscape:window-x="0"
     inkscape:window-y="26"
     inkscape:window-maximized="0"
     inkscape:current-layer="Layer_1" /><g
     id="g4314"
     transform="translate(-1.4288e-7,1.1896506)"><polygon
       transform="matrix(0.17229972,0,0,0.17229972,-159.41239,-209.1591)"
       style="fill:#939598"
       id="polygon3597"
       points="1218.548,1677.09 1291.023,1677.09 1387.244,1531.996 1291.023,1386.898 1218.548,1386.898 1316.385,1531.996 " /><polygon
       transform="matrix(0.17229972,0,0,0.17229972,-159.41239,-209.1591)"
       style="fill:#939598"
       id="polygon3599"
       points="1093.909,1677.09 1021.438,1677.09 925.204,1531.996 1021.438,1386.898 1093.909,1386.898 996.073,1531.996 " /></g><g
     id="g4318"
     transform="translate(-1.4288e-7,-2.84856e-6)"><g
       transform="matrix(0.16829124,0,0,0.16829124,-155.70373,-202.43652)"
       id="g3601"><g
         id="g3603"><g
           id="g3605"><path
             d="m 1183.983,1553.016 c 0,-0.628 -0.435,-5.664 -0.308,-6.521 0,0.034 0,0.034 0,-0.168 -0.397,-22.843 -1.789,-116.19 -3.569,-146.781 -0.599,-18.089 -1.363,-36.126 -2.413,-54.164 -1.405,-23.614 -5.441,-48.452 -8.082,-71.999 -2.219,-20.087 -5.442,-40.154 -8.243,-60.289 -0.279,-2.286 -1.126,-4.539 -1.734,-6.817 -0.257,0 -0.527,-3.357 -0.793,-3.383 -0.257,0.025 -0.527,3.383 -0.797,3.383 -0.625,2.278 -1.456,4.531 -1.713,6.817 -2.852,20.134 -6.07,40.201 -8.285,60.289 -2.645,23.547 -6.657,48.385 -8.002,71.999 -1.101,18.038 -1.865,36.075 -2.455,54.164 -1.789,30.591 -3.21,123.938 -3.577,146.781 0,0.202 0,0.202 0,0.168 0.093,0.857 -0.333,5.894 -0.333,6.521 -0.063,2.811 -0.295,5.688 0,8.514 0.101,0.793 0.038,1.455 -0.093,1.982 l 25.255,0 25.268,0 c -0.165,-0.527 -0.202,-1.189 -0.126,-1.982 0.295,-2.827 0.089,-5.704 0,-8.514 z m -3.155,-38.606 -21.986,-20.101 0,-111.946 18.316,14.531 c 0.856,2.752 3.67,117.516 3.67,117.516 z"
             id="path3607"
             inkscape:connector-curvature="0"
             style="fill:#686868" /></g></g></g><path
       d="m 46.245762,60.492977 -6.92872,0 -4.24313,0 -2.68693,0 c -0.68293,0 -1.25512,0.5558 -1.25512,1.2401 0,0.5821 0.42308,1.0491 0.96969,1.1814 l 3.7391,0 c -0.0141,0.039 -0.0313,0.054 -0.0448,0.1028 l -0.0838,0.3763 c -0.11359,0.5821 -0.18175,1.3694 -0.22079,2.0727 -0.0121,0.021 -0.0106,0.051 -0.0106,0.074 -0.006,0.1518 -0.01,0.3046 -0.0141,0.4566 -0.004,0.1354 -0.009,0.2497 -0.0128,0.3648 -0.0119,0.4017 -0.0148,0.6843 -0.0148,0.6843 0.0433,0 0.0384,0.036 0.0419,0.065 0,0.021 0.002,0.06 0.0156,0.055 0.11646,-0.039 0.0894,0.1454 0.19236,0.1206 0.006,0.025 0.0121,0.048 0.0135,0.075 0.004,0.084 0,0.1696 0.005,0.2534 0.006,0.1286 -0.0185,0.2087 -0.17822,0.2186 -0.0518,0 -0.11999,0.1101 -0.1725,0.1746 -0.14405,0.1762 -0.0406,0.365 -0.0796,0.5425 -0.0247,0.1136 0.103,0.1441 0.13211,0.2314 0.006,0.016 0.0682,0.037 0.0653,0.09 0,0.013 0.0157,0.04 0.022,0.039 0.11427,-0.013 0.15618,0.1029 0.18748,0.1571 0.0525,0.094 0.0247,0.2228 0.0157,0.3379 -0.004,0.064 -0.12571,0.048 -0.10215,0.1383 -0.10081,-0.028 -0.10872,0.1044 -0.1895,0.1087 -0.0448,0 -0.039,0.036 -0.0406,0.064 -0.0141,0.2327 -0.0128,0.467 0.006,0.6997 0.002,0.045 -0.0106,0.1101 0.0746,0.101 0.0342,0 0.0326,0.033 0.0342,0.058 0.002,0.023 -0.005,0.065 0.0263,0.06 0.1178,-0.018 0.16122,0.1108 0.17822,0.1491 0.0441,0.1022 0.0454,0.2422 -0.004,0.3452 -0.0247,0.053 -0.0717,0.1469 -0.17536,0.1518 -0.12268,0.01 -0.2208,0.1129 -0.225,0.2356 -0.006,0.1873 0.006,0.3755 -0.008,0.5601 -0.008,0.09 0.12269,0.053 0.0979,0.137 0.0986,0.012 0.0816,0.1427 0.18596,0.1745 0.0483,0.014 0.14137,0.082 0.14406,0.1789 0.004,0.089 0.006,0.1789 0.005,0.2684 0,0.186 -0.0703,0.2656 -0.24991,0.2925 -0.0448,0.01 -0.0874,0 -0.0788,0.068 0.002,0.01 0.002,0.02 -0.004,0.024 -0.18461,0.1335 -0.0653,0.3278 -0.0958,0.4913 -0.0128,0.068 0,0.142 -0.002,0.2159 -0.002,0.1021 0.0106,0.1703 0.13985,0.2087 0.0483,0.014 0.12924,0.089 0.18949,0.146 0.19875,0.2016 0.0697,0.4288 0.0931,0.6431 0.003,0.021 0.002,0.046 -0.0234,0.051 -0.0902,0.01 -0.1661,0.021 -0.242,0.097 -0.037,0.037 -0.071,0.062 -0.071,0.1151 0.002,0.2327 0.006,0.467 0.009,0.6997 0.002,0.09 0.12857,0.072 0.12992,0.1584 0.0717,-0.013 0.0851,0.061 0.12134,0.082 0.18175,0.1087 0.19522,0.2726 0.19101,0.4527 -0.003,0.031 -0.003,0.061 -0.003,0.09 -0.004,0.1553 -0.0845,0.2406 -0.23931,0.2517 -0.0902,0 -0.19589,0.1209 -0.19371,0.2124 0.002,0.1059 -0.005,0.2124 0.004,0.3167 0.008,0.087 -0.0525,0.1951 0.0746,0.2535 0.0157,0.01 0.0135,0.063 0.0135,0.096 0,0.053 0.0313,0.062 0.0688,0.092 0.0803,0.064 0.17384,0.1063 0.25412,0.1659 0.0653,0.048 0.14271,0.1235 0.12134,0.2344 -0.003,0.01 0.006,0.02 0.009,0.021 0.19741,0.03 0.0746,0.1761 0.0995,0.2654 0.006,0.024 0.005,0.064 -0.0278,0.061 -0.10568,-0.01 -0.0796,0.1491 -0.1831,0.135 0.0461,0.1222 -0.14624,0.081 -0.13059,0.1846 0.002,0.01 -0.0589,0.021 -0.0916,0.03 -0.0234,0.01 -0.0547,0 -0.0745,0.01 -0.0589,0.038 -0.037,0.103 -0.0313,0.1491 0.0113,0.088 -0.0554,0.2051 0.0439,0.2521 0.0631,0.032 0.0646,0.062 0.0666,0.1114 0,0.037 0.009,0.08 0.002,0.1136 -0.0298,0.1257 0.088,0.1563 0.14406,0.2173 0.056,0.06 0.13211,0.1008 0.17401,0.1753 0.002,0 0.002,0.01 0.003,0.012 0.22854,0.072 0.0873,0.2613 0.12285,0.3961 0.0106,0.034 -0.005,0.074 -0.004,0.1134 0.002,0.054 -0.017,0.07 -0.0724,0.088 -0.0639,0.022 -0.1072,0.09 -0.16324,0.1349 -0.1831,0.152 -0.10367,0.3651 -0.0788,0.536 0.0157,0.1273 0.0618,0.3195 0.20161,0.3691 0.0887,0.031 0.0931,0.1385 0.19236,0.1385 0.0313,0 0.0406,0.6346 0.0114,0.6333 -0.0981,-0.01 -0.0781,0.1518 -0.18664,0.1178 -0.0419,-0.013 -0.0355,0.036 -0.039,0.065 -0.017,0.2173 0.008,0.4315 0.006,0.6488 -0.002,0.018 -0.003,0.046 0.0249,0.051 0.1306,0.021 0.20162,0.139 0.28677,0.2156 0.0887,0.078 0.16829,0.2159 0.12773,0.3692 -0.0141,0.05 -0.008,0.1021 -0.005,0.1533 0.0128,0.1213 -0.0773,0.1831 -0.15466,0.2301 -0.15416,0.09 -0.19388,0.2914 -0.0759,0.4301 0.0432,0.051 0.0183,0.1222 0.0227,0.1833 0.006,0.1462 0.0873,0.2369 0.23005,0.2541 0.0732,0.01 0.18462,0.1292 0.20161,0.2014 0.0128,0.048 -0.009,0.1138 0.0781,0.1352 0.0512,0.013 0.0278,0.2874 -0.0221,0.3221 -0.0121,0.01 -0.0404,0.015 -0.0404,0.021 0.0128,0.1568 -0.071,0.2016 -0.21086,0.1959 -0.0313,0 -0.022,0.04 -0.0247,0.063 -0.0207,0.2038 -0.005,0.4082 0.006,0.6099 0.002,0.039 0.01,0.067 0.0574,0.064 0.0496,0 0.0703,0.021 0.0703,0.067 0,0.026 0.0183,0.036 0.0432,0.037 0.13632,0.011 0.22787,0.073 0.25766,0.2159 0,0 0.003,0.01 0.006,0.01 0.19808,0.036 0.0931,0.1939 0.11579,0.2962 0.0113,0.04 0.004,0.087 -0.002,0.1271 -0.009,0.058 -0.0121,0.099 -0.0894,0.135 -0.0702,0.031 -0.12285,0.109 -0.21726,0.1107 -0.006,0 -0.0157,0.037 -0.0157,0.055 -0.006,0.1619 -0.0234,0.3251 0.0227,0.48 0.034,0.1072 0.0752,0.2236 0.2272,0.2221 0.0851,0 0.10518,0.087 0.1661,0.1272 0.13346,0.09 0.12571,0.2498 0.10872,0.4004 -0.006,0.047 0.0135,0.1059 -0.0688,0.1086 -0.0342,0 -0.0199,0.041 -0.0263,0.062 -0.0185,0.066 0.0298,0.1579 -0.088,0.1789 -0.0313,0 -0.0177,0.2917 0.0148,0.2996 0.0767,0.016 0.0611,0.069 0.0624,0.1163 0.003,0.09 0.0141,0.1804 0.006,0.2669 0,0 0.003,0.01 0.003,0.013 l 0.0313,0.8547 c -0.002,0.073 0.003,0.1277 0.003,0.1277 l -0.003,0 c 0.0973,0.8333 -0.11999,2.9503 -0.11999,2.9503 l -0.003,-0.01 c -0.0539,0.6553 -0.17822,1.4077 -0.42662,2.2541 l -0.0547,0.4359 c -0.0135,0.4358 0.11074,0.8177 0.38203,1.1734 0.0141,0.026 0.0404,0.067 0.0547,0.1897 0.20447,1.1998 0.57286,1.5952 1.74417,1.8401 0.20801,0.047 0.41736,0.062 0.62537,0.07 0.0377,0 0.0746,0.012 0.11225,0.012 0.009,0 0.0172,0 0.0263,0 0.009,0 0.017,0 0.0263,0 0.0377,0 0.0746,-0.011 0.11141,-0.012 0.20868,-0.01 0.4182,-0.024 0.62621,-0.07 1.17131,-0.2449 1.53919,-0.6403 1.74417,-1.8401 0.0141,-0.1228 0.0406,-0.1634 0.0547,-0.1897 0.27129,-0.3556 0.39549,-0.7376 0.38202,-1.1734 l -0.0547,-0.4359 c -0.24857,-0.8462 -0.3726,-1.5988 -0.42662,-2.2541 l -0.004,0.01 c 0,0 -0.21727,-2.117 -0.11932,-2.9503 l 0.002,-0.053 c 0.002,-0.017 0.002,-0.022 0.002,-0.048 l 0.0313,-0.8932 c -0.008,-0.086 0.004,-0.1767 0.006,-0.2669 0.002,-0.047 -0.0141,-0.1008 0.0618,-0.1163 0.0326,-0.01 0.0469,-0.2953 0.0156,-0.2995 -0.11798,-0.021 -0.0697,-0.1136 -0.0887,-0.1789 -0.006,-0.021 0.008,-0.06 -0.0263,-0.062 -0.0816,0 -0.0618,-0.062 -0.0681,-0.1085 -0.0172,-0.1506 -0.0249,-0.3104 0.10854,-0.4004 0.0611,-0.04 0.081,-0.1306 0.16611,-0.1272 0.15196,0 0.19235,-0.1151 0.22652,-0.2222 0.0468,-0.1548 0.0298,-0.318 0.0234,-0.4799 0,-0.018 -0.009,-0.055 -0.0156,-0.055 -0.0944,0 -0.14759,-0.08 -0.21727,-0.1108 -0.0772,-0.035 -0.0809,-0.077 -0.0894,-0.1349 -0.005,-0.04 -0.0128,-0.087 -0.002,-0.1271 0.0234,-0.1021 -0.0823,-0.2607 0.11646,-0.2962 0.004,0 0.006,-0.01 0.006,-0.01 0.0298,-0.1427 0.12066,-0.2045 0.25765,-0.2159 0.0249,0 0.0432,-0.011 0.0432,-0.037 0,-0.045 0.0199,-0.07 0.0697,-0.067 0.0483,0 0.056,-0.025 0.0576,-0.064 0.0113,-0.2016 0.0263,-0.4061 0.006,-0.6099 -0.003,-0.023 0.006,-0.065 -0.0249,-0.063 -0.13985,0.01 -0.22366,-0.039 -0.21087,-0.1959 0,-0.01 -0.0283,-0.014 -0.0404,-0.021 -0.0497,-0.035 -0.0732,-0.3095 -0.0221,-0.3222 0.0874,-0.021 0.0653,-0.087 0.0781,-0.1351 0.0172,-0.072 0.12857,-0.1917 0.20161,-0.2014 0.14271,-0.017 0.22366,-0.1079 0.23006,-0.2542 0.004,-0.061 -0.0205,-0.1321 0.0227,-0.1832 0.1178,-0.1385 0.0781,-0.3401 -0.0761,-0.4302 -0.0774,-0.047 -0.16762,-0.1087 -0.1555,-0.23 0.004,-0.051 0.01,-0.1037 -0.004,-0.1533 -0.0404,-0.1534 0.0384,-0.2917 0.12706,-0.3693 0.0858,-0.076 0.15685,-0.1944 0.28744,-0.2156 0.0278,-0.01 0.0263,-0.033 0.0247,-0.051 -0.002,-0.2172 0.0234,-0.4315 0.006,-0.6487 -0.004,-0.03 0.003,-0.078 -0.039,-0.065 -0.10871,0.034 -0.0887,-0.1278 -0.1868,-0.1178 -0.0291,0 -0.0199,-0.6333 0.0114,-0.6333 0.0993,0 0.10367,-0.1074 0.19236,-0.1385 0.13985,-0.05 0.18596,-0.242 0.20161,-0.3691 0.0249,-0.171 0.10434,-0.3839 -0.0788,-0.536 -0.056,-0.045 -0.0995,-0.1129 -0.16341,-0.135 -0.056,-0.018 -0.0746,-0.034 -0.073,-0.088 0.002,-0.039 -0.0135,-0.079 -0.003,-0.1134 0.0355,-0.135 -0.10569,-0.3245 0.12285,-0.3962 0.002,0 0.002,-0.01 0.003,-0.012 0.0419,-0.075 0.11781,-0.1151 0.17402,-0.1754 0.056,-0.061 0.17384,-0.091 0.14406,-0.2172 -0.008,-0.034 0.002,-0.077 0.002,-0.1136 0.002,-0.05 0.004,-0.08 0.0666,-0.1115 0.0993,-0.047 0.0326,-0.1647 0.0441,-0.2521 0.006,-0.046 0.0278,-0.1114 -0.0313,-0.1491 -0.0199,-0.01 -0.0512,0 -0.0746,-0.01 -0.0326,-0.01 -0.0929,-0.024 -0.0915,-0.03 0.0157,-0.1035 -0.17671,-0.062 -0.1306,-0.1846 -0.10366,0.014 -0.0772,-0.1448 -0.1831,-0.135 -0.0327,0 -0.034,-0.038 -0.0278,-0.061 0.0249,-0.089 -0.0979,-0.2356 0.0995,-0.2654 0.003,0 0.0121,-0.016 0.009,-0.021 -0.022,-0.1107 0.056,-0.186 0.12067,-0.2344 0.0809,-0.06 0.17384,-0.1022 0.25479,-0.166 0.0377,-0.03 0.0682,-0.039 0.0682,-0.092 0,-0.033 -0.002,-0.09 0.0141,-0.096 0.12706,-0.058 0.0666,-0.1661 0.0746,-0.2535 0.009,-0.1043 0.003,-0.2109 0.004,-0.3167 0.002,-0.092 -0.10366,-0.208 -0.1937,-0.2124 -0.1555,-0.011 -0.23561,-0.096 -0.23914,-0.2518 0,-0.029 0,-0.059 -0.003,-0.09 -0.004,-0.1801 0.009,-0.3442 0.19101,-0.4527 0.0355,-0.021 0.0496,-0.095 0.12134,-0.082 0.002,-0.087 0.12857,-0.068 0.12992,-0.1584 0.004,-0.2327 0.008,-0.467 0.009,-0.6998 0,-0.053 -0.0342,-0.077 -0.071,-0.1151 -0.0767,-0.076 -0.15196,-0.087 -0.242,-0.097 -0.0249,0 -0.0263,-0.03 -0.0234,-0.051 0.0234,-0.2142 -0.10586,-0.4414 0.0929,-0.643 0.0604,-0.057 0.14119,-0.1319 0.18949,-0.1461 0.12858,-0.039 0.1412,-0.1065 0.13918,-0.2087 -0.002,-0.074 0.0113,-0.1477 -0.002,-0.2159 -0.0313,-0.1634 0.0887,-0.3578 -0.0958,-0.4912 -0.005,0 -0.005,-0.016 -0.004,-0.024 0.008,-0.064 -0.034,-0.062 -0.0788,-0.068 -0.1804,-0.027 -0.24991,-0.1066 -0.24991,-0.2925 -0.002,-0.089 0.002,-0.1796 0.005,-0.2685 0.003,-0.096 0.0958,-0.1647 0.14406,-0.1789 0.10367,-0.032 0.0867,-0.1624 0.18596,-0.1745 -0.0247,-0.084 0.10569,-0.047 0.098,-0.137 -0.0141,-0.1846 -0.002,-0.3727 -0.008,-0.56 -0.004,-0.1227 -0.10215,-0.2286 -0.225,-0.2356 -0.10434,0 -0.15062,-0.1 -0.17536,-0.1518 -0.0496,-0.1029 -0.0483,-0.2429 -0.005,-0.3452 0.0177,-0.038 0.0604,-0.1675 0.17889,-0.1491 0.0306,0 0.0249,-0.037 0.0263,-0.06 0.002,-0.025 0,-0.059 0.0342,-0.057 0.0852,0.01 0.0732,-0.056 0.0745,-0.101 0.0185,-0.2327 0.0205,-0.467 0.006,-0.6997 -0.002,-0.029 0.004,-0.061 -0.0406,-0.064 -0.081,0 -0.0887,-0.1363 -0.18949,-0.1087 0.0234,-0.09 -0.0981,-0.075 -0.10216,-0.1383 -0.009,-0.1152 -0.0377,-0.2436 0.0156,-0.338 0.0313,-0.054 0.0724,-0.1705 0.18731,-0.157 0.006,0 0.0221,-0.026 0.0221,-0.039 -0.004,-0.053 0.0589,-0.074 0.0653,-0.09 0.0291,-0.087 0.15685,-0.1178 0.13127,-0.2314 -0.0384,-0.1775 0.0653,-0.3664 -0.0788,-0.5426 -0.0525,-0.064 -0.12134,-0.1716 -0.1725,-0.1745 -0.15971,-0.01 -0.18461,-0.09 -0.17822,-0.2186 0.005,-0.084 0.002,-0.1696 0.005,-0.2534 0.002,-0.026 0.007,-0.05 0.0135,-0.075 0.10299,0.025 0.0761,-0.1597 0.19235,-0.1207 0.0141,0.01 0.0157,-0.034 0.0157,-0.055 0.003,-0.029 -0.002,-0.067 0.0419,-0.065 0,0 -0.003,-0.2827 -0.0157,-0.6842 -0.003,-0.1151 -0.008,-0.2294 -0.0121,-0.3649 -0.005,-0.1519 -0.008,-0.3048 -0.0141,-0.4566 0,-0.023 0.002,-0.053 -0.0106,-0.074 -0.039,-0.7035 -0.1072,-1.4906 -0.2208,-2.0727 l -0.0838,-0.3763 c -0.0141,-0.048 -0.0313,-0.064 -0.0448,-0.1028 l 3.61624,0 c 0.55435,-0.1321 0.967,-0.5993 0.967,-1.1814 -0.002,-0.6845 -0.55687,-1.2402 -1.2568,-1.2402 z"
       id="path3609"
       inkscape:connector-curvature="0"
       style="fill:#353535" /><g
       transform="matrix(0.16829124,0,0,0.16829124,-155.70373,-202.43652)"
       id="g3611"><linearGradient
         id="SVGID_1_"
         gradientUnits="userSpaceOnUse"
         x1="1146.1938"
         y1="1567.3887"
         x2="1146.1938"
         y2="1333.3677"><stop
           offset="0"
           style="stop-color:#353535"
           id="stop3614" /><stop
           offset="1"
           style="stop-color:#595959"
           id="stop3616" /></linearGradient><path
         d="m 1158.829,1202.894 c -0.283,0 -0.477,3.413 -0.755,3.413 -0.662,2.278 -1.514,4.556 -1.704,6.825 -2.923,20.176 -6.133,40.365 -8.31,60.445 -2.636,23.686 -6.707,48.616 -8.027,72.302 -1.131,18.084 -1.89,36.19 -2.451,54.282 -1.797,30.705 -3.218,124.307 -3.598,147.237 0,0.093 0,0.093 0,0.186 l 0,0.101 c 0.101,0.949 -0.274,5.885 -0.274,6.446 -0.093,2.843 -0.287,5.683 0,8.529 0,0.38 -0.093,0.565 -0.093,0.853 l 25.213,0 0,-360.619 z"
         id="path3618"
         style="fill:url(#SVGID_1_)"
         inkscape:connector-curvature="0" /></g></g><g
     id="g4289"
     transform="translate(-1.4288e-7,2.9942273)"><g
       transform="matrix(0.17872973,0,0,0.17872973,-170.47641,-220.01675)"
       id="g3571"><g
         id="g3573"><path
           style="fill:#939598"
           inkscape:connector-curvature="0"
           id="path3575"
           d="m 1426.158,1649.102 0,-106.876 26.736,0 c 17.764,0 31.236,4.417 40.479,13.263 9.251,8.833 13.854,21.725 13.854,38.682 0,16.275 -4.961,29.521 -14.865,39.687 -9.918,10.157 -23.594,15.245 -41.016,15.245 l -25.188,0 z m 7.387,-100.093 0,93.368 16.738,0 c 15.856,0 28.047,-4.107 36.526,-12.325 8.491,-8.209 12.761,-20.079 12.761,-35.599 0,-30.301 -15.938,-45.444 -47.765,-45.444 l -18.26,0 z" /><path
           style="fill:#939598"
           inkscape:connector-curvature="0"
           id="path3577"
           d="m 1529.158,1611.238 c 0,10.479 2.43,18.688 7.26,24.588 4.834,5.885 11.473,8.863 19.939,8.863 8.543,0 16.891,-3.126 25.023,-9.453 l 0,7.293 c -7.896,5.619 -16.696,8.424 -26.432,8.424 -9.854,0 -17.793,-3.539 -23.843,-10.588 -6.07,-7.057 -9.103,-16.996 -9.103,-29.861 0,-11.153 3.163,-20.526 9.499,-28.162 6.327,-7.609 14.554,-11.436 24.69,-11.436 9.516,0 16.785,3.328 21.855,9.998 5.057,6.652 7.592,15.726 7.592,27.254 l 0,3.08 -56.48,0 z m 49.324,-6.269 c -0.282,-8.791 -2.426,-15.624 -6.336,-20.484 -3.936,-4.88 -9.33,-7.33 -16.232,-7.33 -7.175,0 -13.114,2.404 -17.779,7.209 -4.704,4.796 -7.602,11.676 -8.682,20.605 l 49.029,0 z" /><path
           style="fill:#939598"
           inkscape:connector-curvature="0"
           id="path3579"
           d="m 1629.605,1649.102 -6.261,0 -29.524,-76.344 7.711,0 22.699,60.773 c 1.098,2.907 1.873,5.572 2.312,7.969 l 0.286,0 c 0.667,-3.164 1.376,-5.703 2.169,-7.678 l 23.491,-61.064 7.441,0 -30.324,76.344 z" /><path
           style="fill:#939598"
           inkscape:connector-curvature="0"
           id="path3581"
           d="m 1675.369,1611.238 c 0,10.479 2.4,18.688 7.27,24.588 4.825,5.885 11.473,8.863 19.914,8.863 8.567,0 16.902,-3.126 25.074,-9.453 l 0,7.293 c -7.931,5.619 -16.747,8.424 -26.479,8.424 -9.838,0 -17.772,-3.539 -23.852,-10.588 -6.057,-7.057 -9.072,-16.996 -9.072,-29.861 0,-11.153 3.143,-20.526 9.469,-28.162 6.357,-7.609 14.601,-11.436 24.729,-11.436 9.5,0 16.76,3.328 21.822,9.998 5.1,6.652 7.626,15.726 7.626,27.254 l 0,3.08 -56.501,0 z m 49.326,-6.269 c -0.287,-8.791 -2.435,-15.624 -6.328,-20.484 -3.918,-4.88 -9.344,-7.33 -16.27,-7.33 -7.138,0 -13.057,2.404 -17.742,7.209 -4.704,4.796 -7.619,11.676 -8.699,20.605 l 49.039,0 z" /><path
           style="fill:#939598"
           inkscape:connector-curvature="0"
           id="path3583"
           d="m 1750.777,1649.102 0,-112.992 6.88,0 0,112.992 -6.88,0 z" /><path
           style="fill:#939598"
           inkscape:connector-curvature="0"
           id="path3585"
           d="m 1812.728,1650.953 c -11.149,0 -19.94,-3.674 -26.433,-10.984 -6.492,-7.344 -9.71,-16.86 -9.71,-28.584 0,-12.68 3.392,-22.576 10.153,-29.734 6.796,-7.162 15.718,-10.744 26.791,-10.744 10.896,0 19.48,3.543 25.808,10.651 6.29,7.112 9.462,16.944 9.462,29.536 0,11.879 -3.227,21.48 -9.647,28.828 -6.455,7.357 -15.263,11.031 -26.424,11.031 z m 0.527,-73.799 c -8.993,0 -16.187,3.07 -21.526,9.119 -5.332,6.058 -8.006,14.486 -8.006,25.26 0,9.98 2.619,18.029 7.85,24.053 5.201,6.078 12.348,9.104 21.371,9.104 9.183,0 16.266,-2.986 21.238,-8.926 4.97,-5.986 7.441,-14.25 7.441,-24.838 0,-10.875 -2.463,-19.219 -7.402,-25.023 -4.928,-5.831 -11.939,-8.749 -20.966,-8.749 z" /><path
           style="fill:#939598"
           inkscape:connector-curvature="0"
           id="path3587"
           d="m 1874.872,1635.531 -0.286,0 0,48.642 -6.859,0 0,-111.415 6.859,0 0,15.748 0.286,0 c 2.759,-5.628 6.652,-9.936 11.761,-13.023 5.092,-3.053 10.682,-4.576 16.785,-4.576 9.702,0 17.273,3.337 22.707,10.027 5.434,6.694 8.154,15.776 8.154,27.225 0,12.781 -3.117,23.092 -9.352,30.988 -6.235,7.88 -14.465,11.807 -24.699,11.807 -11.439,-10e-4 -19.868,-5.147 -25.356,-15.423 z m -0.286,-28.406 0,9.631 c 0,7.635 2.4,14.203 7.221,19.707 4.826,5.477 11.188,8.227 19,8.227 7.812,0 14.14,-3.35 19,-10.015 4.88,-6.69 7.331,-15.478 7.331,-26.339 0,-9.559 -2.266,-17.118 -6.741,-22.746 -4.463,-5.618 -10.395,-8.436 -17.865,-8.436 -8.892,0 -15.78,2.994 -20.648,8.951 -4.873,5.977 -7.298,12.997 -7.298,21.02 z" /><path
           style="fill:#939598"
           inkscape:connector-curvature="0"
           id="path3589"
           d="m 2048.917,1649.102 0,-45.912 c 0,-9.576 -1.519,-16.316 -4.497,-20.197 -3.016,-3.877 -7.778,-5.838 -14.296,-5.838 -6.015,0 -11.216,2.615 -15.569,7.752 -4.371,5.172 -6.547,11.678 -6.547,19.48 l 0,44.715 -6.881,0 0,-46.439 c 0,-16.987 -6.449,-25.508 -19.37,-25.508 -6.214,0 -11.397,2.615 -15.503,7.791 -4.121,5.209 -6.196,11.934 -6.196,20.168 l 0,43.988 -6.838,0 0,-76.344 6.838,0 0,12.693 0.304,0 c 5.319,-9.682 13.115,-14.545 23.332,-14.545 5.563,0 10.322,1.607 14.287,4.822 3.919,3.176 6.614,7.424 7.998,12.612 2.396,-5.509 5.801,-9.771 10.255,-12.858 4.438,-3.053 9.259,-4.576 14.481,-4.576 16.709,0 25.057,10.33 25.057,31.01 l 0,47.186 -6.855,0 z" /><path
           style="fill:#939598"
           inkscape:connector-curvature="0"
           id="path3591"
           d="m 2080.268,1611.238 c 0,10.479 2.442,18.688 7.269,24.588 4.843,5.885 11.491,8.863 19.932,8.863 8.546,0 16.886,-3.126 25.048,-9.453 l 0,7.293 c -7.904,5.619 -16.713,8.424 -26.461,8.424 -9.833,0 -17.789,-3.539 -23.821,-10.588 -6.07,-7.057 -9.111,-16.996 -9.111,-29.861 0,-11.153 3.181,-20.526 9.479,-28.162 6.356,-7.609 14.591,-11.436 24.728,-11.436 9.5,0 16.777,3.328 21.813,9.998 5.091,6.652 7.636,15.726 7.636,27.254 l 0,3.08 -56.512,0 z m 49.341,-6.269 c -0.303,-8.791 -2.417,-15.624 -6.336,-20.484 -3.927,-4.88 -9.344,-7.33 -16.24,-7.33 -7.176,0 -13.09,2.404 -17.811,7.209 -4.656,4.796 -7.555,11.676 -8.63,20.605 l 49.017,0 z" /><path
           style="fill:#939598"
           inkscape:connector-curvature="0"
           id="path3593"
           d="m 2207.564,1649.102 0,-44.428 c 0,-18.328 -6.605,-27.52 -19.83,-27.52 -7.361,0 -13.385,2.732 -18.105,8.086 -4.703,5.404 -7.082,12.09 -7.082,20.033 l 0,43.828 -6.834,0 0,-76.344 6.834,0 0,13.896 0.303,0 c 5.59,-10.499 14.259,-15.747 26.082,-15.747 8.265,0 14.575,2.759 18.945,8.247 4.379,5.483 6.539,13.317 6.539,23.509 l 0,46.439 -6.852,0 z" /><path
           style="fill:#939598"
           inkscape:connector-curvature="0"
           id="path3595"
           d="m 2267.559,1648.03 c -3.569,1.688 -6.918,2.556 -10.053,2.556 -11.279,0 -16.916,-6.773 -16.916,-20.281 l 0,-51.27 -13.722,0 0,-6.277 13.722,0 0,-19.809 c 1.072,-0.405 2.232,-0.785 3.413,-1.182 1.198,-0.346 2.35,-0.734 3.421,-1.139 l 0,22.129 20.135,0 0,6.277 -20.135,0 0,50.375 c 0,5.265 0.856,9.074 2.51,11.453 1.671,2.332 4.48,3.522 8.458,3.522 2.822,0 5.885,-0.903 9.167,-2.759 l 0,6.405 z" /></g></g><g
       transform="matrix(0.17872973,0,0,0.17872973,-170.47641,-220.01675)"
       id="g3620"><g
         id="g3622"><path
           d="m 1501.629,1496.516 c -9.533,18.604 -26.854,25.749 -41.256,25.749 -22.509,0 -45.161,-13.103 -45.161,-39.159 l 0,-39.514 c 0,-25.888 22.652,-39.171 45.659,-39.171 14.068,0 31.056,5.999 40.26,26.39 l -23.609,9.533 c -7.775,-14.229 -33.334,-10.992 -33.334,3.248 l 0,39.514 c 0,13.739 25.889,17.646 32.207,1.75 l 25.234,11.66 z"
           id="path3624"
           inkscape:connector-curvature="0"
           style="fill:#353535" /><path
           d="m 1509.449,1443.762 c 0,-26.391 23.641,-39.341 47.406,-39.341 23.816,0 47.592,13.119 47.592,39.341 l 0,39.18 c 0,26.221 -23.611,39.323 -47.424,39.323 -23.808,0 -47.574,-13.103 -47.574,-39.323 l 0,-39.18 z m 28.972,39.179 c 0,8.411 9.369,12.447 18.603,12.447 9.238,0 18.443,-4.205 18.443,-12.447 l 0,-39.18 c 0,-8.91 -9.533,-12.951 -18.94,-12.951 -9.04,0 -18.105,4.539 -18.105,12.951 l 0,39.18 z"
           id="path3626"
           inkscape:connector-curvature="0"
           style="fill:#353535" /><path
           d="m 1619.869,1406.049 28.976,0 24.108,55.99 24.268,-55.99 28.967,0 0,114.596 -29.105,0 0.139,-33.013 1.789,-23.142 -0.958,-0.16 -15.063,39.332 -19.902,0 -15.401,-39.332 -0.793,0.16 1.953,23.142 0,33.013 -28.976,0 0,-114.596 z"
           id="path3628"
           inkscape:connector-curvature="0"
           style="fill:#353535" /><path
           d="m 1744.378,1406.049 28.968,0 24.099,55.99 24.276,-55.99 29.006,0 0,114.596 -29.137,0 0.131,-33.013 1.789,-23.142 -0.957,-0.16 -15.072,39.332 -19.902,0 -15.367,-39.332 -0.818,0.16 1.953,23.142 0,33.013 -28.968,0 0,-114.596 z"
           id="path3630"
           inkscape:connector-curvature="0"
           style="fill:#353535" /><path
           d="m 1966.152,1520.645 -31.062,0 -7.441,-23.007 -30.596,0 -7.121,23.007 -31.098,0 40.012,-114.596 26.377,0 40.929,114.596 z m -45.461,-48.702 -7.938,-33.553 -0.806,0 -8.411,33.553 17.155,0 z"
           id="path3632"
           inkscape:connector-curvature="0"
           style="fill:#353535" /><path
           d="m 1973.81,1406.049 27.512,0 27.677,48.869 9.702,22.986 0.831,-0.131 c -0.169,0 -3.084,-19.771 -3.248,-19.771 l 0,-51.953 28.811,0 0,114.596 -29.309,0 -25.896,-45.157 -10.027,-22.985 -0.801,0.168 3.717,22.189 0,45.785 -28.968,0 0,-114.596 z"
           id="path3634"
           inkscape:connector-curvature="0"
           style="fill:#353535" /><path
           d="m 2126.15,1406.049 c 22.978,0 44.504,11.655 44.504,38.336 l 0,38.557 c 0,26.348 -21.526,37.863 -44.504,37.703 l -42.913,0 0,-114.596 42.913,0 z m 0.962,87.412 c 9.896,0 14.405,-5.027 14.405,-12.477 l 0,-35.768 c 0,-7.454 -4.678,-12.153 -14.405,-12.153 l -14.739,0 0,60.397 14.739,0 z"
           id="path3636"
           inkscape:connector-curvature="0"
           style="fill:#353535" /><path
           d="m 2183.499,1443.762 c 0,-26.391 23.61,-39.341 47.414,-39.341 23.771,0 47.583,13.119 47.583,39.341 l 0,39.18 c 0,26.221 -23.648,39.323 -47.422,39.323 -23.797,0 -47.575,-13.103 -47.575,-39.323 l 0,-39.18 z m 28.942,39.179 c 0,8.411 9.398,12.447 18.633,12.447 9.213,0 18.441,-4.205 18.441,-12.447 l 0,-39.18 c 0,-8.91 -9.562,-12.951 -18.932,-12.951 -9.078,0 -18.143,4.539 -18.143,12.951 l 0,39.18 z"
           id="path3638"
           inkscape:connector-curvature="0"
           style="fill:#353535" /></g></g></g></svg>